<svg width="512" height="512" version="1.1" xmlns="http://www.w3.org/2000/svg" desc="Created with imagetracer.js version 1.2.6" ><path fill="rgb(0,0,0)" stroke="rgb(0,0,0)" stroke-width="1" opacity="0.8666666666666667" d="M 59.5 96 L 63 96.5 L 59.5 97 L 59.5 96 Z " /><path fill="rgb(0,0,0)" stroke="rgb(0,0,0)" stroke-width="1" opacity="0.8666666666666667" d="M 449.5 96 L 453 96.5 L 449.5 97 L 449.5 96 Z " /><path fill="rgb(0,0,0)" stroke="rgb(0,0,0)" stroke-width="1" opacity="0.8666666666666667" d="M 42.5 104 L 40.5 107 L 42.5 104 Z " /><path fill="rgb(0,0,0)" stroke="rgb(0,0,0)" stroke-width="1" opacity="0.8666666666666667" d="M 469.5 104 L 471.5 107 L 469.5 104 Z " /><path fill="rgb(0,0,0)" stroke="rgb(0,0,0)" stroke-width="1" opacity="0.8666666666666667" d="M 32.5 123 L 33 126.5 L 32 126.5 L 32.5 123 Z " /><path fill="rgb(0,0,0)" stroke="rgb(0,0,0)" stroke-width="1" opacity="0.8666666666666667" d="M 479.5 123 L 480 126.5 L 479 126.5 L 479.5 123 Z " /><path fill="rgb(0,0,0)" stroke="rgb(0,0,0)" stroke-width="1" opacity="0.8666666666666667" d="M 64.5 136 L 65.5 138 L 64.5 136 Z " /><path fill="rgb(0,0,0)" stroke="rgb(0,0,0)" stroke-width="1" opacity="0.8666666666666667" d="M 447.5 136 L 446.5 138 L 447.5 136 Z " /><path fill="rgb(0,0,0)" stroke="rgb(0,0,0)" stroke-width="1" opacity="0.8666666666666667" d="M 68.5 139 L 69.5 141 L 68.5 139 Z " /><path fill="rgb(0,0,0)" stroke="rgb(0,0,0)" stroke-width="1" opacity="0.8666666666666667" d="M 443.5 139 L 442.5 141 L 443.5 139 Z " /><path fill="rgb(0,0,0)" stroke="rgb(0,0,0)" stroke-width="1" opacity="0.8666666666666667" d="M 72.5 142 L 73.5 144 L 72.5 142 Z " /><path fill="rgb(0,0,0)" stroke="rgb(0,0,0)" stroke-width="1" opacity="0.8666666666666667" d="M 439.5 142 L 438.5 144 L 439.5 142 Z " /><path fill="rgb(0,0,0)" stroke="rgb(0,0,0)" stroke-width="1" opacity="0.8666666666666667" d="M 76.5 145 L 77.5 147 L 76.5 145 Z " /><path fill="rgb(0,0,0)" stroke="rgb(0,0,0)" stroke-width="1" opacity="0.8666666666666667" d="M 435.5 145 L 434.5 147 L 435.5 145 Z " /><path fill="rgb(0,0,0)" stroke="rgb(0,0,0)" stroke-width="1" opacity="0.8666666666666667" d="M 80.5 148 L 81.5 150 L 80.5 148 Z " /><path fill="rgb(0,0,0)" stroke="rgb(0,0,0)" stroke-width="1" opacity="0.8666666666666667" d="M 431.5 148 L 430.5 150 L 431.5 148 Z " /><path fill="rgb(0,0,0)" stroke="rgb(0,0,0)" stroke-width="1" opacity="0.8666666666666667" d="M 84.5 151 L 85.5 153 L 84.5 151 Z " /><path fill="rgb(0,0,0)" stroke="rgb(0,0,0)" stroke-width="1" opacity="0.8666666666666667" d="M 427.5 151 L 426.5 153 L 427.5 151 Z " /><path fill="rgb(0,0,0)" stroke="rgb(0,0,0)" stroke-width="1" opacity="0.8666666666666667" d="M 88.5 154 L 89.5 156 L 88.5 154 Z " /><path fill="rgb(0,0,0)" stroke="rgb(0,0,0)" stroke-width="1" opacity="0.8666666666666667" d="M 423.5 154 L 422.5 156 L 423.5 154 Z " /><path fill="rgb(0,0,0)" stroke="rgb(0,0,0)" stroke-width="1" opacity="0.8666666666666667" d="M 92.5 157 L 93.5 159 L 92.5 157 Z " /><path fill="rgb(0,0,0)" stroke="rgb(0,0,0)" stroke-width="1" opacity="0.8666666666666667" d="M 419.5 157 L 418.5 159 L 419.5 157 Z " /><path fill="rgb(0,0,0)" stroke="rgb(0,0,0)" stroke-width="1" opacity="0.8666666666666667" d="M 96.5 160 L 97.5 162 L 96.5 160 Z " /><path fill="rgb(0,0,0)" stroke="rgb(0,0,0)" stroke-width="1" opacity="0.8666666666666667" d="M 415.5 160 L 414.5 162 L 415.5 160 Z " /><path fill="rgb(0,0,0)" stroke="rgb(0,0,0)" stroke-width="1" opacity="0.8666666666666667" d="M 100.5 163 L 101.5 165 L 100.5 163 Z " /><path fill="rgb(0,0,0)" stroke="rgb(0,0,0)" stroke-width="1" opacity="0.8666666666666667" d="M 411.5 163 L 410.5 165 L 411.5 163 Z " /><path fill="rgb(0,0,0)" stroke="rgb(0,0,0)" stroke-width="1" opacity="0.8666666666666667" d="M 104.5 166 L 105.5 168 L 104.5 166 Z " /><path fill="rgb(0,0,0)" stroke="rgb(0,0,0)" stroke-width="1" opacity="0.8666666666666667" d="M 407.5 166 L 406.5 168 L 407.5 166 Z " /><path fill="rgb(0,0,0)" stroke="rgb(0,0,0)" stroke-width="1" opacity="0.8666666666666667" d="M 108.5 169 L 109.5 171 L 108.5 169 Z " /><path fill="rgb(0,0,0)" stroke="rgb(0,0,0)" stroke-width="1" opacity="0.8666666666666667" d="M 403.5 169 L 402.5 171 L 403.5 169 Z " /><path fill="rgb(0,0,0)" stroke="rgb(0,0,0)" stroke-width="1" opacity="0.8666666666666667" d="M 112.5 172 L 113.5 174 L 112.5 172 Z " /><path fill="rgb(0,0,0)" stroke="rgb(0,0,0)" stroke-width="1" opacity="0.8666666666666667" d="M 399.5 172 L 398.5 174 L 399.5 172 Z " /><path fill="rgb(0,0,0)" stroke="rgb(0,0,0)" stroke-width="1" opacity="0.8666666666666667" d="M 116.5 175 L 117.5 177 L 116.5 175 Z " /><path fill="rgb(0,0,0)" stroke="rgb(0,0,0)" stroke-width="1" opacity="0.8666666666666667" d="M 395.5 175 L 394.5 177 L 395.5 175 Z " /><path fill="rgb(0,0,0)" stroke="rgb(0,0,0)" stroke-width="1" opacity="0.8666666666666667" d="M 445.5 177 L 444.5 179 L 445.5 177 Z " /><path fill="rgb(0,0,0)" stroke="rgb(0,0,0)" stroke-width="1" opacity="0.8666666666666667" d="M 120.5 178 L 121.5 180 L 120.5 178 Z " /><path fill="rgb(0,0,0)" stroke="rgb(0,0,0)" stroke-width="1" opacity="0.8666666666666667" d="M 391.5 178 L 390.5 180 L 391.5 178 Z " /><path fill="rgb(0,0,0)" stroke="rgb(0,0,0)" stroke-width="1" opacity="0.8666666666666667" d="M 441.5 180 L 440.5 182 L 441.5 180 Z " /><path fill="rgb(0,0,0)" stroke="rgb(0,0,0)" stroke-width="1" opacity="0.8666666666666667" d="M 124.5 181 L 125.5 183 L 124.5 181 Z " /><path fill="rgb(0,0,0)" stroke="rgb(0,0,0)" stroke-width="1" opacity="0.8666666666666667" d="M 387.5 181 L 386.5 183 L 387.5 181 Z " /><path fill="rgb(0,0,0)" stroke="rgb(0,0,0)" stroke-width="1" opacity="0.8666666666666667" d="M 437.5 183 L 436.5 185 L 437.5 183 Z " /><path fill="rgb(0,0,0)" stroke="rgb(0,0,0)" stroke-width="1" opacity="0.8666666666666667" d="M 128.5 184 L 129.5 186 L 128.5 184 Z " /><path fill="rgb(0,0,0)" stroke="rgb(0,0,0)" stroke-width="1" opacity="0.8666666666666667" d="M 383.5 184 L 382.5 186 L 383.5 184 Z " /><path fill="rgb(0,0,0)" stroke="rgb(0,0,0)" stroke-width="1" opacity="0.8666666666666667" d="M 433.5 186 L 432.5 188 L 433.5 186 Z " /><path fill="rgb(0,0,0)" stroke="rgb(0,0,0)" stroke-width="1" opacity="0.8666666666666667" d="M 132.5 187 L 133.5 189 L 132.5 187 Z " /><path fill="rgb(0,0,0)" stroke="rgb(0,0,0)" stroke-width="1" opacity="0.8666666666666667" d="M 379.5 187 L 378.5 189 L 379.5 187 Z " /><path fill="rgb(0,0,0)" stroke="rgb(0,0,0)" stroke-width="1" opacity="0.8666666666666667" d="M 429.5 189 L 428.5 191 L 429.5 189 Z " /><path fill="rgb(0,0,0)" stroke="rgb(0,0,0)" stroke-width="1" opacity="0.8666666666666667" d="M 136.5 190 L 137.5 192 L 136.5 190 Z " /><path fill="rgb(0,0,0)" stroke="rgb(0,0,0)" stroke-width="1" opacity="0.8666666666666667" d="M 375.5 190 L 374.5 192 L 375.5 190 Z " /><path fill="rgb(0,0,0)" stroke="rgb(0,0,0)" stroke-width="1" opacity="0.8666666666666667" d="M 425.5 192 L 424.5 194 L 425.5 192 Z " /><path fill="rgb(0,0,0)" stroke="rgb(0,0,0)" stroke-width="1" opacity="0.8666666666666667" d="M 140.5 193 L 141.5 195 L 140.5 193 Z " /><path fill="rgb(0,0,0)" stroke="rgb(0,0,0)" stroke-width="1" opacity="0.8666666666666667" d="M 371.5 193 L 370.5 195 L 371.5 193 Z " /><path fill="rgb(0,0,0)" stroke="rgb(0,0,0)" stroke-width="1" opacity="0.8666666666666667" d="M 421.5 195 L 420.5 197 L 421.5 195 Z " /><path fill="rgb(0,0,0)" stroke="rgb(0,0,0)" stroke-width="1" opacity="0.8666666666666667" d="M 144.5 196 L 145.5 198 L 144.5 196 Z " /><path fill="rgb(0,0,0)" stroke="rgb(0,0,0)" stroke-width="1" opacity="0.8666666666666667" d="M 367.5 196 L 366.5 198 L 367.5 196 Z " /><path fill="rgb(0,0,0)" stroke="rgb(0,0,0)" stroke-width="1" opacity="0.8666666666666667" d="M 417.5 198 L 416.5 200 L 417.5 198 Z " /><path fill="rgb(0,0,0)" stroke="rgb(0,0,0)" stroke-width="1" opacity="0.8666666666666667" d="M 148.5 199 L 149.5 201 L 148.5 199 Z " /><path fill="rgb(0,0,0)" stroke="rgb(0,0,0)" stroke-width="1" opacity="0.8666666666666667" d="M 363.5 199 L 362.5 201 L 363.5 199 Z " /><path fill="rgb(0,0,0)" stroke="rgb(0,0,0)" stroke-width="1" opacity="0.8666666666666667" d="M 413.5 201 L 412.5 203 L 413.5 201 Z " /><path fill="rgb(0,0,0)" stroke="rgb(0,0,0)" stroke-width="1" opacity="0.8666666666666667" d="M 152.5 202 L 153.5 204 L 152.5 202 Z " /><path fill="rgb(0,0,0)" stroke="rgb(0,0,0)" stroke-width="1" opacity="0.8666666666666667" d="M 359.5 202 L 358.5 204 L 359.5 202 Z " /><path fill="rgb(0,0,0)" stroke="rgb(0,0,0)" stroke-width="1" opacity="0.8666666666666667" d="M 409.5 204 L 408.5 206 L 409.5 204 Z " /><path fill="rgb(0,0,0)" stroke="rgb(0,0,0)" stroke-width="1" opacity="0.8666666666666667" d="M 156.5 205 L 157.5 207 L 156.5 205 Z " /><path fill="rgb(0,0,0)" stroke="rgb(0,0,0)" stroke-width="1" opacity="0.8666666666666667" d="M 355.5 205 L 354.5 207 L 355.5 205 Z " /><path fill="rgb(0,0,0)" stroke="rgb(0,0,0)" stroke-width="1" opacity="0.8666666666666667" d="M 405.5 207 L 404.5 209 L 405.5 207 Z " /><path fill="rgb(0,0,0)" stroke="rgb(0,0,0)" stroke-width="1" opacity="0.8666666666666667" d="M 160.5 208 L 161.5 210 L 160.5 208 Z " /><path fill="rgb(0,0,0)" stroke="rgb(0,0,0)" stroke-width="1" opacity="0.8666666666666667" d="M 351.5 208 L 350.5 210 L 351.5 208 Z " /><path fill="rgb(0,0,0)" stroke="rgb(0,0,0)" stroke-width="1" opacity="0.8666666666666667" d="M 401.5 210 L 400.5 212 L 401.5 210 Z " /><path fill="rgb(0,0,0)" stroke="rgb(0,0,0)" stroke-width="1" opacity="0.8666666666666667" d="M 164.5 211 L 165.5 213 L 164.5 211 Z " /><path fill="rgb(0,0,0)" stroke="rgb(0,0,0)" stroke-width="1" opacity="0.8666666666666667" d="M 347.5 211 L 346.5 213 L 347.5 211 Z " /><path fill="rgb(0,0,0)" stroke="rgb(0,0,0)" stroke-width="1" opacity="0.8666666666666667" d="M 397.5 213 L 396.5 215 L 397.5 213 Z " /><path fill="rgb(0,0,0)" stroke="rgb(0,0,0)" stroke-width="1" opacity="0.8666666666666667" d="M 168.5 214 L 169.5 216 L 168.5 214 Z " /><path fill="rgb(0,0,0)" stroke="rgb(0,0,0)" stroke-width="1" opacity="0.8666666666666667" d="M 343.5 214 L 342.5 216 L 343.5 214 Z " /><path fill="rgb(0,0,0)" stroke="rgb(0,0,0)" stroke-width="1" opacity="0.8666666666666667" d="M 393.5 216 L 392.5 218 L 393.5 216 Z " /><path fill="rgb(0,0,0)" stroke="rgb(0,0,0)" stroke-width="1" opacity="0.8666666666666667" d="M 172.5 217 L 173.5 219 L 172.5 217 Z " /><path fill="rgb(0,0,0)" stroke="rgb(0,0,0)" stroke-width="1" opacity="0.8666666666666667" d="M 339.5 217 L 338.5 219 L 339.5 217 Z " /><path fill="rgb(0,0,0)" stroke="rgb(0,0,0)" stroke-width="1" opacity="0.8666666666666667" d="M 389.5 219 L 388.5 221 L 389.5 219 Z " /><path fill="rgb(0,0,0)" stroke="rgb(0,0,0)" stroke-width="1" opacity="0.8666666666666667" d="M 176.5 220 L 177.5 222 L 176.5 220 Z " /><path fill="rgb(0,0,0)" stroke="rgb(0,0,0)" stroke-width="1" opacity="0.8666666666666667" d="M 335.5 220 L 334.5 222 L 335.5 220 Z " /><path fill="rgb(0,0,0)" stroke="rgb(0,0,0)" stroke-width="1" opacity="0.8666666666666667" d="M 385.5 222 L 384.5 224 L 385.5 222 Z " /><path fill="rgb(0,0,0)" stroke="rgb(0,0,0)" stroke-width="1" opacity="0.8666666666666667" d="M 180.5 223 L 181.5 225 L 180.5 223 Z " /><path fill="rgb(0,0,0)" stroke="rgb(0,0,0)" stroke-width="1" opacity="0.8666666666666667" d="M 331.5 223 L 330.5 225 L 331.5 223 Z " /><path fill="rgb(0,0,0)" stroke="rgb(0,0,0)" stroke-width="1" opacity="0.8666666666666667" d="M 381.5 225 L 380.5 227 L 381.5 225 Z " /><path fill="rgb(0,0,0)" stroke="rgb(0,0,0)" stroke-width="1" opacity="0.8666666666666667" d="M 184.5 226 L 185.5 228 L 184.5 226 Z " /><path fill="rgb(0,0,0)" stroke="rgb(0,0,0)" stroke-width="1" opacity="0.8666666666666667" d="M 327.5 226 L 326.5 228 L 327.5 226 Z " /><path fill="rgb(0,0,0)" stroke="rgb(0,0,0)" stroke-width="1" opacity="0.8666666666666667" d="M 377.5 228 L 376.5 230 L 377.5 228 Z " /><path fill="rgb(0,0,0)" stroke="rgb(0,0,0)" stroke-width="1" opacity="0.8666666666666667" d="M 188.5 229 L 189.5 231 L 188.5 229 Z " /><path fill="rgb(0,0,0)" stroke="rgb(0,0,0)" stroke-width="1" opacity="0.8666666666666667" d="M 323.5 229 L 322.5 231 L 323.5 229 Z " /><path fill="rgb(0,0,0)" stroke="rgb(0,0,0)" stroke-width="1" opacity="0.8666666666666667" d="M 373.5 231 L 372.5 233 L 373.5 231 Z " /><path fill="rgb(0,0,0)" stroke="rgb(0,0,0)" stroke-width="1" opacity="0.8666666666666667" d="M 192.5 232 L 193.5 234 L 192.5 232 Z " /><path fill="rgb(0,0,0)" stroke="rgb(0,0,0)" stroke-width="1" opacity="0.8666666666666667" d="M 319.5 232 L 318.5 234 L 319.5 232 Z " /><path fill="rgb(0,0,0)" stroke="rgb(0,0,0)" stroke-width="1" opacity="0.8666666666666667" d="M 369.5 234 L 368.5 236 L 369.5 234 Z " /><path fill="rgb(0,0,0)" stroke="rgb(0,0,0)" stroke-width="1" opacity="0.8666666666666667" d="M 196.5 235 L 197.5 237 L 196.5 235 Z " /><path fill="rgb(0,0,0)" stroke="rgb(0,0,0)" stroke-width="1" opacity="0.8666666666666667" d="M 315.5 235 L 314.5 237 L 315.5 235 Z " /><path fill="rgb(0,0,0)" stroke="rgb(0,0,0)" stroke-width="1" opacity="0.8666666666666667" d="M 365.5 237 L 364.5 239 L 365.5 237 Z " /><path fill="rgb(0,0,0)" stroke="rgb(0,0,0)" stroke-width="1" opacity="0.8666666666666667" d="M 200.5 238 L 201.5 240 L 200.5 238 Z " /><path fill="rgb(0,0,0)" stroke="rgb(0,0,0)" stroke-width="1" opacity="0.8666666666666667" d="M 311.5 238 L 310.5 240 L 311.5 238 Z " /><path fill="rgb(0,0,0)" stroke="rgb(0,0,0)" stroke-width="1" opacity="0.8666666666666667" d="M 361.5 240 L 360.5 242 L 361.5 240 Z " /><path fill="rgb(0,0,0)" stroke="rgb(0,0,0)" stroke-width="1" opacity="0.8666666666666667" d="M 204.5 241 L 205.5 243 L 204.5 241 Z " /><path fill="rgb(0,0,0)" stroke="rgb(0,0,0)" stroke-width="1" opacity="0.8666666666666667" d="M 307.5 241 L 306.5 243 L 307.5 241 Z " /><path fill="rgb(0,0,0)" stroke="rgb(0,0,0)" stroke-width="1" opacity="0.8666666666666667" d="M 357.5 243 L 356.5 245 L 357.5 243 Z " /><path fill="rgb(0,0,0)" stroke="rgb(0,0,0)" stroke-width="1" opacity="0.8666666666666667" d="M 208.5 244 L 209.5 246 L 208.5 244 Z " /><path fill="rgb(0,0,0)" stroke="rgb(0,0,0)" stroke-width="1" opacity="0.8666666666666667" d="M 303.5 244 L 302.5 246 L 303.5 244 Z " /><path fill="rgb(0,0,0)" stroke="rgb(0,0,0)" stroke-width="1" opacity="0.8666666666666667" d="M 353.5 246 L 352.5 248 L 353.5 246 Z " /><path fill="rgb(0,0,0)" stroke="rgb(0,0,0)" stroke-width="1" opacity="0.8666666666666667" d="M 212.5 247 L 213.5 249 L 212.5 247 Z " /><path fill="rgb(0,0,0)" stroke="rgb(0,0,0)" stroke-width="1" opacity="0.8666666666666667" d="M 299.5 247 L 298.5 249 L 299.5 247 Z " /><path fill="rgb(0,0,0)" stroke="rgb(0,0,0)" stroke-width="1" opacity="0.8666666666666667" d="M 349.5 249 L 348.5 251 L 349.5 249 Z " /><path fill="rgb(0,0,0)" stroke="rgb(0,0,0)" stroke-width="1" opacity="0.8666666666666667" d="M 216.5 250 L 217.5 252 L 216.5 250 Z " /><path fill="rgb(0,0,0)" stroke="rgb(0,0,0)" stroke-width="1" opacity="0.8666666666666667" d="M 295.5 250 L 294.5 252 L 295.5 250 Z " /><path fill="rgb(0,0,0)" stroke="rgb(0,0,0)" stroke-width="1" opacity="0.8666666666666667" d="M 345.5 252 L 344.5 254 L 345.5 252 Z " /><path fill="rgb(0,0,0)" stroke="rgb(0,0,0)" stroke-width="1" opacity="0.8666666666666667" d="M 220.5 253 L 221.5 255 L 220.5 253 Z " /><path fill="rgb(0,0,0)" stroke="rgb(0,0,0)" stroke-width="1" opacity="0.8666666666666667" d="M 291.5 253 L 290.5 255 L 291.5 253 Z " /><path fill="rgb(0,0,0)" stroke="rgb(0,0,0)" stroke-width="1" opacity="0.8666666666666667" d="M 341.5 255 L 340.5 257 L 341.5 255 Z " /><path fill="rgb(0,0,0)" stroke="rgb(0,0,0)" stroke-width="1" opacity="0.8666666666666667" d="M 224.5 256 L 225.5 258 L 224.5 256 Z " /><path fill="rgb(0,0,0)" stroke="rgb(0,0,0)" stroke-width="1" opacity="0.8666666666666667" d="M 287.5 256 L 286.5 258 L 287.5 256 Z " /><path fill="rgb(0,0,0)" stroke="rgb(0,0,0)" stroke-width="1" opacity="0.8666666666666667" d="M 337.5 258 L 336.5 260 L 337.5 258 Z " /><path fill="rgb(0,0,0)" stroke="rgb(0,0,0)" stroke-width="1" opacity="0.8666666666666667" d="M 228.5 259 L 229.5 261 L 228.5 259 Z " /><path fill="rgb(0,0,0)" stroke="rgb(0,0,0)" stroke-width="1" opacity="0.8666666666666667" d="M 283.5 259 L 282.5 261 L 283.5 259 Z " /><path fill="rgb(0,0,0)" stroke="rgb(0,0,0)" stroke-width="1" opacity="0.8666666666666667" d="M 333.5 261 L 332.5 263 L 333.5 261 Z " /><path fill="rgb(0,0,0)" stroke="rgb(0,0,0)" stroke-width="1" opacity="0.8666666666666667" d="M 232.5 262 L 233.5 264 L 232.5 262 Z " /><path fill="rgb(0,0,0)" stroke="rgb(0,0,0)" stroke-width="1" opacity="0.8666666666666667" d="M 279.5 262 L 278.5 264 L 279.5 262 Z " /><path fill="rgb(0,0,0)" stroke="rgb(0,0,0)" stroke-width="1" opacity="0.8666666666666667" d="M 329.5 264 L 328.5 266 L 329.5 264 Z " /><path fill="rgb(0,0,0)" stroke="rgb(0,0,0)" stroke-width="1" opacity="0.8666666666666667" d="M 236.5 265 L 237.5 267 L 236.5 265 Z " /><path fill="rgb(0,0,0)" stroke="rgb(0,0,0)" stroke-width="1" opacity="0.8666666666666667" d="M 275.5 265 L 274.5 267 L 275.5 265 Z " /><path fill="rgb(0,0,0)" stroke="rgb(0,0,0)" stroke-width="1" opacity="0.8666666666666667" d="M 325.5 267 L 324.5 269 L 325.5 267 Z " /><path fill="rgb(0,0,0)" stroke="rgb(0,0,0)" stroke-width="1" opacity="0.8666666666666667" d="M 240.5 268 L 241.5 270 L 240.5 268 Z " /><path fill="rgb(0,0,0)" stroke="rgb(0,0,0)" stroke-width="1" opacity="0.8666666666666667" d="M 271.5 268 L 270.5 270 L 271.5 268 Z " /><path fill="rgb(0,0,0)" stroke="rgb(0,0,0)" stroke-width="1" opacity="0.8666666666666667" d="M 321.5 270 L 320.5 272 L 321.5 270 Z " /><path fill="rgb(0,0,0)" stroke="rgb(0,0,0)" stroke-width="1" opacity="0.8666666666666667" d="M 244.5 271 L 245.5 273 L 244.5 271 Z " /><path fill="rgb(0,0,0)" stroke="rgb(0,0,0)" stroke-width="1" opacity="0.8666666666666667" d="M 267.5 271 L 266.5 273 L 267.5 271 Z " /><path fill="rgb(0,0,0)" stroke="rgb(0,0,0)" stroke-width="1" opacity="0.8666666666666667" d="M 317.5 273 L 316.5 275 L 317.5 273 Z " /><path fill="rgb(0,0,0)" stroke="rgb(0,0,0)" stroke-width="1" opacity="0.8666666666666667" d="M 248.5 274 L 249.5 276 L 248.5 274 Z " /><path fill="rgb(0,0,0)" stroke="rgb(0,0,0)" stroke-width="1" opacity="0.8666666666666667" d="M 263.5 274 L 262.5 276 L 263.5 274 Z " /><path fill="rgb(0,0,0)" stroke="rgb(0,0,0)" stroke-width="1" opacity="0.8666666666666667" d="M 313.5 276 L 312.5 278 L 313.5 276 Z " /><path fill="rgb(0,0,0)" stroke="rgb(0,0,0)" stroke-width="1" opacity="0.8666666666666667" d="M 252.5 277 L 253.5 279 L 252.5 277 Z " /><path fill="rgb(0,0,0)" stroke="rgb(0,0,0)" stroke-width="1" opacity="0.8666666666666667" d="M 259.5 277 L 258.5 279 L 259.5 277 Z " /><path fill="rgb(0,0,0)" stroke="rgb(0,0,0)" stroke-width="1" opacity="0.8666666666666667" d="M 309.5 279 L 308.5 281 L 309.5 279 Z " /><path fill="rgb(0,0,0)" stroke="rgb(0,0,0)" stroke-width="1" opacity="0.8666666666666667" d="M 305.5 282 L 304.5 284 L 305.5 282 Z " /><path fill="rgb(0,0,0)" stroke="rgb(0,0,0)" stroke-width="1" opacity="0.8666666666666667" d="M 301.5 285 L 300.5 287 L 301.5 285 Z " /><path fill="rgb(0,0,0)" stroke="rgb(0,0,0)" stroke-width="1" opacity="0.8666666666666667" d="M 297.5 288 L 296.5 290 L 297.5 288 Z " /><path fill="rgb(0,0,0)" stroke="rgb(0,0,0)" stroke-width="1" opacity="0.8666666666666667" d="M 293.5 291 L 292.5 293 L 293.5 291 Z " /><path fill="rgb(0,0,0)" stroke="rgb(0,0,0)" stroke-width="1" opacity="0.8666666666666667" d="M 289.5 294 L 288.5 296 L 289.5 294 Z " /><path fill="rgb(0,0,0)" stroke="rgb(0,0,0)" stroke-width="1" opacity="0.8666666666666667" d="M 285.5 297 L 284.5 299 L 285.5 297 Z " /><path fill="rgb(0,0,0)" stroke="rgb(0,0,0)" stroke-width="1" opacity="0.8666666666666667" d="M 281.5 300 L 280.5 302 L 281.5 300 Z " /><path fill="rgb(0,0,0)" stroke="rgb(0,0,0)" stroke-width="1" opacity="0.8666666666666667" d="M 277.5 303 L 276.5 305 L 277.5 303 Z " /><path fill="rgb(0,0,0)" stroke="rgb(0,0,0)" stroke-width="1" opacity="0.8666666666666667" d="M 251.5 311 L 255 311.5 L 251.5 312 L 251.5 311 Z " /><path fill="rgb(0,0,0)" stroke="rgb(0,0,0)" stroke-width="1" opacity="0.8666666666666667" d="M 257.5 311 L 261 311.5 L 257.5 312 L 257.5 311 Z " /><path fill="rgb(0,0,0)" stroke="rgb(0,0,0)" stroke-width="1" opacity="0.8666666666666667" d="M 32.5 385 L 33 388.5 L 32 388.5 L 32.5 385 Z " /><path fill="rgb(0,0,0)" stroke="rgb(0,0,0)" stroke-width="1" opacity="0.8666666666666667" d="M 479.5 385 L 480 388.5 L 479 388.5 L 479.5 385 Z " /><path fill="rgb(0,0,0)" stroke="rgb(0,0,0)" stroke-width="1" opacity="0.8666666666666667" d="M 40.5 405 L 42.5 408 L 40.5 405 Z " /><path fill="rgb(0,0,0)" stroke="rgb(0,0,0)" stroke-width="1" opacity="0.8666666666666667" d="M 471.5 405 L 469.5 408 L 471.5 405 Z " /><path fill="rgb(0,0,0)" stroke="rgb(0,0,0)" stroke-width="1" opacity="0.8666666666666667" d="M 45.5 409 L 46.5 411 L 45.5 409 Z " /><path fill="rgb(0,0,0)" stroke="rgb(0,0,0)" stroke-width="1" opacity="0.8666666666666667" d="M 59.5 415 L 63 415.5 L 59.5 416 L 59.5 415 Z " /><path fill="rgb(0,0,0)" stroke="rgb(0,0,0)" stroke-width="1" opacity="0.8666666666666667" d="M 449.5 415 L 453 415.5 L 449.5 416 L 449.5 415 Z " /><path fill="rgb(0,0,0)" stroke="rgb(0,0,0)" stroke-width="1" opacity="1" d="M 63.5 96 L 448.5 96 Q 450 98.5 455.5 97 L 466.5 102 L 474 109.5 L 478 117.5 L 480 127.5 L 480 384.5 Q 477.5 386 479 391.5 L 474 402.5 L 466.5 410 L 458.5 414 L 448.5 416 L 63.5 416 Q 62 413.5 56.5 415 L 47.5 411 L 38 402.5 L 34 394.5 L 32 384.5 L 32 127.5 Q 34.5 126 33 120.5 L 38 109.5 L 45.5 102 L 53.5 98 L 63.5 96 Z M 64 128 L 64 137 L 256 280 L 259 279 L 448 137 L 448 129 L 448 128 L 64 128 Z M 65 176 L 64 384 L 448 384 L 448 176 L 275 306 L 264 311 Q 258 310 257 312 L 249 311 L 238 306 L 65 176 Z " /><path fill="rgb(0,0,0)" stroke="rgb(0,0,0)" stroke-width="1" opacity="0" d="M 0 0 L 512 0 L 512 512 L 0 512 L 0 0 Z M 58 96 L 45 102 Q 35 109 32 122 L 32 391 L 38 404 Q 45 413 58 416 L 455 416 L 468 410 Q 477 403 480 391 L 480 122 L 474 109 Q 467 99 455 96 L 58 96 Z " /><path fill="rgb(0,0,0)" stroke="rgb(0,0,0)" stroke-width="1" opacity="0" d="M 64 128 L 447.5 128 L 448 128.5 L 448 135.5 L 258.5 278 L 255.5 279 L 64 135.5 L 64 128 Z " /><path fill="rgb(0,0,0)" stroke="rgb(0,0,0)" stroke-width="1" opacity="0" d="M 64 177 L 236.5 306 L 249.5 312 L 262.5 312 L 275.5 306 L 448 177 L 448 384 L 64 384 L 64 177 Z " /><path fill="rgb(0,0,0)" stroke="rgb(0,0,0)" stroke-width="1" opacity="0.35294117647058826" d="M 44.5 102 L 43.5 104 L 44.5 102 Z " /><path fill="rgb(0,0,0)" stroke="rgb(0,0,0)" stroke-width="1" opacity="0.35294117647058826" d="M 467.5 102 L 468.5 104 L 467.5 102 Z " /><path fill="rgb(0,0,0)" stroke="rgb(0,0,0)" stroke-width="1" opacity="0.35294117647058826" d="M 39.5 107 L 38.5 109 L 39.5 107 Z " /><path fill="rgb(0,0,0)" stroke="rgb(0,0,0)" stroke-width="1" opacity="0.35294117647058826" d="M 472.5 107 L 473.5 109 L 472.5 107 Z " /><path fill="rgb(0,0,0)" stroke="rgb(0,0,0)" stroke-width="1" opacity="0.35294117647058826" d="M 66.5 137 L 67.5 139 L 66.5 137 Z " /><path fill="rgb(0,0,0)" stroke="rgb(0,0,0)" stroke-width="1" opacity="0.35294117647058826" d="M 445.5 137 L 444.5 139 L 445.5 137 Z " /><path fill="rgb(0,0,0)" stroke="rgb(0,0,0)" stroke-width="1" opacity="0.35294117647058826" d="M 70.5 140 L 71.5 142 L 70.5 140 Z " /><path fill="rgb(0,0,0)" stroke="rgb(0,0,0)" stroke-width="1" opacity="0.35294117647058826" d="M 441.5 140 L 440.5 142 L 441.5 140 Z " /><path fill="rgb(0,0,0)" stroke="rgb(0,0,0)" stroke-width="1" opacity="0.35294117647058826" d="M 74.5 143 L 75.5 145 L 74.5 143 Z " /><path fill="rgb(0,0,0)" stroke="rgb(0,0,0)" stroke-width="1" opacity="0.35294117647058826" d="M 437.5 143 L 436.5 145 L 437.5 143 Z " /><path fill="rgb(0,0,0)" stroke="rgb(0,0,0)" stroke-width="1" opacity="0.35294117647058826" d="M 78.5 146 L 79.5 148 L 78.5 146 Z " /><path fill="rgb(0,0,0)" stroke="rgb(0,0,0)" stroke-width="1" opacity="0.35294117647058826" d="M 433.5 146 L 432.5 148 L 433.5 146 Z " /><path fill="rgb(0,0,0)" stroke="rgb(0,0,0)" stroke-width="1" opacity="0.35294117647058826" d="M 82.5 149 L 83.5 151 L 82.5 149 Z " /><path fill="rgb(0,0,0)" stroke="rgb(0,0,0)" stroke-width="1" opacity="0.35294117647058826" d="M 429.5 149 L 428.5 151 L 429.5 149 Z " /><path fill="rgb(0,0,0)" stroke="rgb(0,0,0)" stroke-width="1" opacity="0.35294117647058826" d="M 86.5 152 L 87.5 154 L 86.5 152 Z " /><path fill="rgb(0,0,0)" stroke="rgb(0,0,0)" stroke-width="1" opacity="0.35294117647058826" d="M 425.5 152 L 424.5 154 L 425.5 152 Z " /><path fill="rgb(0,0,0)" stroke="rgb(0,0,0)" stroke-width="1" opacity="0.35294117647058826" d="M 90.5 155 L 91.5 157 L 90.5 155 Z " /><path fill="rgb(0,0,0)" stroke="rgb(0,0,0)" stroke-width="1" opacity="0.35294117647058826" d="M 421.5 155 L 420.5 157 L 421.5 155 Z " /><path fill="rgb(0,0,0)" stroke="rgb(0,0,0)" stroke-width="1" opacity="0.35294117647058826" d="M 94.5 158 L 95.5 160 L 94.5 158 Z " /><path fill="rgb(0,0,0)" stroke="rgb(0,0,0)" stroke-width="1" opacity="0.35294117647058826" d="M 417.5 158 L 416.5 160 L 417.5 158 Z " /><path fill="rgb(0,0,0)" stroke="rgb(0,0,0)" stroke-width="1" opacity="0.35294117647058826" d="M 98.5 161 L 99.5 163 L 98.5 161 Z " /><path fill="rgb(0,0,0)" stroke="rgb(0,0,0)" stroke-width="1" opacity="0.35294117647058826" d="M 413.5 161 L 412.5 163 L 413.5 161 Z " /><path fill="rgb(0,0,0)" stroke="rgb(0,0,0)" stroke-width="1" opacity="0.35294117647058826" d="M 102.5 164 L 103.5 166 L 102.5 164 Z " /><path fill="rgb(0,0,0)" stroke="rgb(0,0,0)" stroke-width="1" opacity="0.35294117647058826" d="M 409.5 164 L 408.5 166 L 409.5 164 Z " /><path fill="rgb(0,0,0)" stroke="rgb(0,0,0)" stroke-width="1" opacity="0.35294117647058826" d="M 106.5 167 L 107.5 169 L 106.5 167 Z " /><path fill="rgb(0,0,0)" stroke="rgb(0,0,0)" stroke-width="1" opacity="0.35294117647058826" d="M 405.5 167 L 404.5 169 L 405.5 167 Z " /><path fill="rgb(0,0,0)" stroke="rgb(0,0,0)" stroke-width="1" opacity="0.35294117647058826" d="M 110.5 170 L 111.5 172 L 110.5 170 Z " /><path fill="rgb(0,0,0)" stroke="rgb(0,0,0)" stroke-width="1" opacity="0.35294117647058826" d="M 401.5 170 L 400.5 172 L 401.5 170 Z " /><path fill="rgb(0,0,0)" stroke="rgb(0,0,0)" stroke-width="1" opacity="0.35294117647058826" d="M 114.5 173 L 115.5 175 L 114.5 173 Z " /><path fill="rgb(0,0,0)" stroke="rgb(0,0,0)" stroke-width="1" opacity="0.35294117647058826" d="M 397.5 173 L 396.5 175 L 397.5 173 Z " /><path fill="rgb(0,0,0)" stroke="rgb(0,0,0)" stroke-width="1" opacity="0.35294117647058826" d="M 118.5 176 L 119.5 178 L 118.5 176 Z " /><path fill="rgb(0,0,0)" stroke="rgb(0,0,0)" stroke-width="1" opacity="0.35294117647058826" d="M 393.5 176 L 392.5 178 L 393.5 176 Z " /><path fill="rgb(0,0,0)" stroke="rgb(0,0,0)" stroke-width="1" opacity="0.35294117647058826" d="M 67.5 178 L 68.5 180 L 67.5 178 Z " /><path fill="rgb(0,0,0)" stroke="rgb(0,0,0)" stroke-width="1" opacity="0.35294117647058826" d="M 122.5 179 L 123.5 181 L 122.5 179 Z " /><path fill="rgb(0,0,0)" stroke="rgb(0,0,0)" stroke-width="1" opacity="0.35294117647058826" d="M 389.5 179 L 388.5 181 L 389.5 179 Z " /><path fill="rgb(0,0,0)" stroke="rgb(0,0,0)" stroke-width="1" opacity="0.35294117647058826" d="M 71.5 181 L 72.5 183 L 71.5 181 Z " /><path fill="rgb(0,0,0)" stroke="rgb(0,0,0)" stroke-width="1" opacity="0.35294117647058826" d="M 126.5 182 L 127.5 184 L 126.5 182 Z " /><path fill="rgb(0,0,0)" stroke="rgb(0,0,0)" stroke-width="1" opacity="0.35294117647058826" d="M 385.5 182 L 384.5 184 L 385.5 182 Z " /><path fill="rgb(0,0,0)" stroke="rgb(0,0,0)" stroke-width="1" opacity="0.35294117647058826" d="M 75.5 184 L 76.5 186 L 75.5 184 Z " /><path fill="rgb(0,0,0)" stroke="rgb(0,0,0)" stroke-width="1" opacity="0.35294117647058826" d="M 130.5 185 L 131.5 187 L 130.5 185 Z " /><path fill="rgb(0,0,0)" stroke="rgb(0,0,0)" stroke-width="1" opacity="0.35294117647058826" d="M 381.5 185 L 380.5 187 L 381.5 185 Z " /><path fill="rgb(0,0,0)" stroke="rgb(0,0,0)" stroke-width="1" opacity="0.35294117647058826" d="M 79.5 187 L 80.5 189 L 79.5 187 Z " /><path fill="rgb(0,0,0)" stroke="rgb(0,0,0)" stroke-width="1" opacity="0.35294117647058826" d="M 134.5 188 L 135.5 190 L 134.5 188 Z " /><path fill="rgb(0,0,0)" stroke="rgb(0,0,0)" stroke-width="1" opacity="0.35294117647058826" d="M 377.5 188 L 376.5 190 L 377.5 188 Z " /><path fill="rgb(0,0,0)" stroke="rgb(0,0,0)" stroke-width="1" opacity="0.35294117647058826" d="M 83.5 190 L 84.5 192 L 83.5 190 Z " /><path fill="rgb(0,0,0)" stroke="rgb(0,0,0)" stroke-width="1" opacity="0.35294117647058826" d="M 138.5 191 L 139.5 193 L 138.5 191 Z " /><path fill="rgb(0,0,0)" stroke="rgb(0,0,0)" stroke-width="1" opacity="0.35294117647058826" d="M 373.5 191 L 372.5 193 L 373.5 191 Z " /><path fill="rgb(0,0,0)" stroke="rgb(0,0,0)" stroke-width="1" opacity="0.35294117647058826" d="M 87.5 193 L 88.5 195 L 87.5 193 Z " /><path fill="rgb(0,0,0)" stroke="rgb(0,0,0)" stroke-width="1" opacity="0.35294117647058826" d="M 142.5 194 L 143.5 196 L 142.5 194 Z " /><path fill="rgb(0,0,0)" stroke="rgb(0,0,0)" stroke-width="1" opacity="0.35294117647058826" d="M 369.5 194 L 368.5 196 L 369.5 194 Z " /><path fill="rgb(0,0,0)" stroke="rgb(0,0,0)" stroke-width="1" opacity="0.35294117647058826" d="M 91.5 196 L 92.5 198 L 91.5 196 Z " /><path fill="rgb(0,0,0)" stroke="rgb(0,0,0)" stroke-width="1" opacity="0.35294117647058826" d="M 146.5 197 L 147.5 199 L 146.5 197 Z " /><path fill="rgb(0,0,0)" stroke="rgb(0,0,0)" stroke-width="1" opacity="0.35294117647058826" d="M 365.5 197 L 364.5 199 L 365.5 197 Z " /><path fill="rgb(0,0,0)" stroke="rgb(0,0,0)" stroke-width="1" opacity="0.35294117647058826" d="M 95.5 199 L 96.5 201 L 95.5 199 Z " /><path fill="rgb(0,0,0)" stroke="rgb(0,0,0)" stroke-width="1" opacity="0.35294117647058826" d="M 150.5 200 L 151.5 202 L 150.5 200 Z " /><path fill="rgb(0,0,0)" stroke="rgb(0,0,0)" stroke-width="1" opacity="0.35294117647058826" d="M 361.5 200 L 360.5 202 L 361.5 200 Z " /><path fill="rgb(0,0,0)" stroke="rgb(0,0,0)" stroke-width="1" opacity="0.35294117647058826" d="M 99.5 202 L 100.5 204 L 99.5 202 Z " /><path fill="rgb(0,0,0)" stroke="rgb(0,0,0)" stroke-width="1" opacity="0.35294117647058826" d="M 154.5 203 L 155.5 205 L 154.5 203 Z " /><path fill="rgb(0,0,0)" stroke="rgb(0,0,0)" stroke-width="1" opacity="0.35294117647058826" d="M 357.5 203 L 356.5 205 L 357.5 203 Z " /><path fill="rgb(0,0,0)" stroke="rgb(0,0,0)" stroke-width="1" opacity="0.35294117647058826" d="M 103.5 205 L 104.5 207 L 103.5 205 Z " /><path fill="rgb(0,0,0)" stroke="rgb(0,0,0)" stroke-width="1" opacity="0.35294117647058826" d="M 158.5 206 L 159.5 208 L 158.5 206 Z " /><path fill="rgb(0,0,0)" stroke="rgb(0,0,0)" stroke-width="1" opacity="0.35294117647058826" d="M 353.5 206 L 352.5 208 L 353.5 206 Z " /><path fill="rgb(0,0,0)" stroke="rgb(0,0,0)" stroke-width="1" opacity="0.35294117647058826" d="M 107.5 208 L 108.5 210 L 107.5 208 Z " /><path fill="rgb(0,0,0)" stroke="rgb(0,0,0)" stroke-width="1" opacity="0.35294117647058826" d="M 162.5 209 L 163.5 211 L 162.5 209 Z " /><path fill="rgb(0,0,0)" stroke="rgb(0,0,0)" stroke-width="1" opacity="0.35294117647058826" d="M 349.5 209 L 348.5 211 L 349.5 209 Z " /><path fill="rgb(0,0,0)" stroke="rgb(0,0,0)" stroke-width="1" opacity="0.35294117647058826" d="M 111.5 211 L 112.5 213 L 111.5 211 Z " /><path fill="rgb(0,0,0)" stroke="rgb(0,0,0)" stroke-width="1" opacity="0.35294117647058826" d="M 166.5 212 L 167.5 214 L 166.5 212 Z " /><path fill="rgb(0,0,0)" stroke="rgb(0,0,0)" stroke-width="1" opacity="0.35294117647058826" d="M 345.5 212 L 344.5 214 L 345.5 212 Z " /><path fill="rgb(0,0,0)" stroke="rgb(0,0,0)" stroke-width="1" opacity="0.35294117647058826" d="M 115.5 214 L 116.5 216 L 115.5 214 Z " /><path fill="rgb(0,0,0)" stroke="rgb(0,0,0)" stroke-width="1" opacity="0.35294117647058826" d="M 170.5 215 L 171.5 217 L 170.5 215 Z " /><path fill="rgb(0,0,0)" stroke="rgb(0,0,0)" stroke-width="1" opacity="0.35294117647058826" d="M 341.5 215 L 340.5 217 L 341.5 215 Z " /><path fill="rgb(0,0,0)" stroke="rgb(0,0,0)" stroke-width="1" opacity="0.35294117647058826" d="M 119.5 217 L 120.5 219 L 119.5 217 Z " /><path fill="rgb(0,0,0)" stroke="rgb(0,0,0)" stroke-width="1" opacity="0.35294117647058826" d="M 174.5 218 L 175.5 220 L 174.5 218 Z " /><path fill="rgb(0,0,0)" stroke="rgb(0,0,0)" stroke-width="1" opacity="0.35294117647058826" d="M 337.5 218 L 336.5 220 L 337.5 218 Z " /><path fill="rgb(0,0,0)" stroke="rgb(0,0,0)" stroke-width="1" opacity="0.35294117647058826" d="M 123.5 220 L 124.5 222 L 123.5 220 Z " /><path fill="rgb(0,0,0)" stroke="rgb(0,0,0)" stroke-width="1" opacity="0.35294117647058826" d="M 178.5 221 L 179.5 223 L 178.5 221 Z " /><path fill="rgb(0,0,0)" stroke="rgb(0,0,0)" stroke-width="1" opacity="0.35294117647058826" d="M 333.5 221 L 332.5 223 L 333.5 221 Z " /><path fill="rgb(0,0,0)" stroke="rgb(0,0,0)" stroke-width="1" opacity="0.35294117647058826" d="M 127.5 223 L 128.5 225 L 127.5 223 Z " /><path fill="rgb(0,0,0)" stroke="rgb(0,0,0)" stroke-width="1" opacity="0.35294117647058826" d="M 182.5 224 L 183.5 226 L 182.5 224 Z " /><path fill="rgb(0,0,0)" stroke="rgb(0,0,0)" stroke-width="1" opacity="0.35294117647058826" d="M 329.5 224 L 328.5 226 L 329.5 224 Z " /><path fill="rgb(0,0,0)" stroke="rgb(0,0,0)" stroke-width="1" opacity="0.35294117647058826" d="M 131.5 226 L 132.5 228 L 131.5 226 Z " /><path fill="rgb(0,0,0)" stroke="rgb(0,0,0)" stroke-width="1" opacity="0.35294117647058826" d="M 186.5 227 L 187.5 229 L 186.5 227 Z " /><path fill="rgb(0,0,0)" stroke="rgb(0,0,0)" stroke-width="1" opacity="0.35294117647058826" d="M 325.5 227 L 324.5 229 L 325.5 227 Z " /><path fill="rgb(0,0,0)" stroke="rgb(0,0,0)" stroke-width="1" opacity="0.35294117647058826" d="M 135.5 229 L 136.5 231 L 135.5 229 Z " /><path fill="rgb(0,0,0)" stroke="rgb(0,0,0)" stroke-width="1" opacity="0.35294117647058826" d="M 190.5 230 L 191.5 232 L 190.5 230 Z " /><path fill="rgb(0,0,0)" stroke="rgb(0,0,0)" stroke-width="1" opacity="0.35294117647058826" d="M 321.5 230 L 320.5 232 L 321.5 230 Z " /><path fill="rgb(0,0,0)" stroke="rgb(0,0,0)" stroke-width="1" opacity="0.35294117647058826" d="M 139.5 232 L 140.5 234 L 139.5 232 Z " /><path fill="rgb(0,0,0)" stroke="rgb(0,0,0)" stroke-width="1" opacity="0.35294117647058826" d="M 194.5 233 L 195.5 235 L 194.5 233 Z " /><path fill="rgb(0,0,0)" stroke="rgb(0,0,0)" stroke-width="1" opacity="0.35294117647058826" d="M 317.5 233 L 316.5 235 L 317.5 233 Z " /><path fill="rgb(0,0,0)" stroke="rgb(0,0,0)" stroke-width="1" opacity="0.35294117647058826" d="M 143.5 235 L 144.5 237 L 143.5 235 Z " /><path fill="rgb(0,0,0)" stroke="rgb(0,0,0)" stroke-width="1" opacity="0.35294117647058826" d="M 198.5 236 L 199.5 238 L 198.5 236 Z " /><path fill="rgb(0,0,0)" stroke="rgb(0,0,0)" stroke-width="1" opacity="0.35294117647058826" d="M 313.5 236 L 312.5 238 L 313.5 236 Z " /><path fill="rgb(0,0,0)" stroke="rgb(0,0,0)" stroke-width="1" opacity="0.35294117647058826" d="M 147.5 238 L 148.5 240 L 147.5 238 Z " /><path fill="rgb(0,0,0)" stroke="rgb(0,0,0)" stroke-width="1" opacity="0.35294117647058826" d="M 202.5 239 L 203.5 241 L 202.5 239 Z " /><path fill="rgb(0,0,0)" stroke="rgb(0,0,0)" stroke-width="1" opacity="0.35294117647058826" d="M 309.5 239 L 308.5 241 L 309.5 239 Z " /><path fill="rgb(0,0,0)" stroke="rgb(0,0,0)" stroke-width="1" opacity="0.35294117647058826" d="M 151.5 241 L 152.5 243 L 151.5 241 Z " /><path fill="rgb(0,0,0)" stroke="rgb(0,0,0)" stroke-width="1" opacity="0.35294117647058826" d="M 206.5 242 L 207.5 244 L 206.5 242 Z " /><path fill="rgb(0,0,0)" stroke="rgb(0,0,0)" stroke-width="1" opacity="0.35294117647058826" d="M 305.5 242 L 304.5 244 L 305.5 242 Z " /><path fill="rgb(0,0,0)" stroke="rgb(0,0,0)" stroke-width="1" opacity="0.35294117647058826" d="M 155.5 244 L 156.5 246 L 155.5 244 Z " /><path fill="rgb(0,0,0)" stroke="rgb(0,0,0)" stroke-width="1" opacity="0.35294117647058826" d="M 210.5 245 L 211.5 247 L 210.5 245 Z " /><path fill="rgb(0,0,0)" stroke="rgb(0,0,0)" stroke-width="1" opacity="0.35294117647058826" d="M 301.5 245 L 300.5 247 L 301.5 245 Z " /><path fill="rgb(0,0,0)" stroke="rgb(0,0,0)" stroke-width="1" opacity="0.35294117647058826" d="M 159.5 247 L 160.5 249 L 159.5 247 Z " /><path fill="rgb(0,0,0)" stroke="rgb(0,0,0)" stroke-width="1" opacity="0.35294117647058826" d="M 214.5 248 L 215.5 250 L 214.5 248 Z " /><path fill="rgb(0,0,0)" stroke="rgb(0,0,0)" stroke-width="1" opacity="0.35294117647058826" d="M 297.5 248 L 296.5 250 L 297.5 248 Z " /><path fill="rgb(0,0,0)" stroke="rgb(0,0,0)" stroke-width="1" opacity="0.35294117647058826" d="M 163.5 250 L 164.5 252 L 163.5 250 Z " /><path fill="rgb(0,0,0)" stroke="rgb(0,0,0)" stroke-width="1" opacity="0.35294117647058826" d="M 218.5 251 L 219.5 253 L 218.5 251 Z " /><path fill="rgb(0,0,0)" stroke="rgb(0,0,0)" stroke-width="1" opacity="0.35294117647058826" d="M 293.5 251 L 292.5 253 L 293.5 251 Z " /><path fill="rgb(0,0,0)" stroke="rgb(0,0,0)" stroke-width="1" opacity="0.35294117647058826" d="M 167.5 253 L 168.5 255 L 167.5 253 Z " /><path fill="rgb(0,0,0)" stroke="rgb(0,0,0)" stroke-width="1" opacity="0.35294117647058826" d="M 222.5 254 L 223.5 256 L 222.5 254 Z " /><path fill="rgb(0,0,0)" stroke="rgb(0,0,0)" stroke-width="1" opacity="0.35294117647058826" d="M 289.5 254 L 288.5 256 L 289.5 254 Z " /><path fill="rgb(0,0,0)" stroke="rgb(0,0,0)" stroke-width="1" opacity="0.35294117647058826" d="M 171.5 256 L 172.5 258 L 171.5 256 Z " /><path fill="rgb(0,0,0)" stroke="rgb(0,0,0)" stroke-width="1" opacity="0.35294117647058826" d="M 226.5 257 L 227.5 259 L 226.5 257 Z " /><path fill="rgb(0,0,0)" stroke="rgb(0,0,0)" stroke-width="1" opacity="0.35294117647058826" d="M 285.5 257 L 284.5 259 L 285.5 257 Z " /><path fill="rgb(0,0,0)" stroke="rgb(0,0,0)" stroke-width="1" opacity="0.35294117647058826" d="M 175.5 259 L 176.5 261 L 175.5 259 Z " /><path fill="rgb(0,0,0)" stroke="rgb(0,0,0)" stroke-width="1" opacity="0.35294117647058826" d="M 230.5 260 L 231.5 262 L 230.5 260 Z " /><path fill="rgb(0,0,0)" stroke="rgb(0,0,0)" stroke-width="1" opacity="0.35294117647058826" d="M 281.5 260 L 280.5 262 L 281.5 260 Z " /><path fill="rgb(0,0,0)" stroke="rgb(0,0,0)" stroke-width="1" opacity="0.35294117647058826" d="M 179.5 262 L 180.5 264 L 179.5 262 Z " /><path fill="rgb(0,0,0)" stroke="rgb(0,0,0)" stroke-width="1" opacity="0.35294117647058826" d="M 234.5 263 L 235.5 265 L 234.5 263 Z " /><path fill="rgb(0,0,0)" stroke="rgb(0,0,0)" stroke-width="1" opacity="0.35294117647058826" d="M 277.5 263 L 276.5 265 L 277.5 263 Z " /><path fill="rgb(0,0,0)" stroke="rgb(0,0,0)" stroke-width="1" opacity="0.35294117647058826" d="M 183.5 265 L 184.5 267 L 183.5 265 Z " /><path fill="rgb(0,0,0)" stroke="rgb(0,0,0)" stroke-width="1" opacity="0.35294117647058826" d="M 238.5 266 L 239.5 268 L 238.5 266 Z " /><path fill="rgb(0,0,0)" stroke="rgb(0,0,0)" stroke-width="1" opacity="0.35294117647058826" d="M 273.5 266 L 272.5 268 L 273.5 266 Z " /><path fill="rgb(0,0,0)" stroke="rgb(0,0,0)" stroke-width="1" opacity="0.35294117647058826" d="M 187.5 268 L 188.5 270 L 187.5 268 Z " /><path fill="rgb(0,0,0)" stroke="rgb(0,0,0)" stroke-width="1" opacity="0.35294117647058826" d="M 242.5 269 L 243.5 271 L 242.5 269 Z " /><path fill="rgb(0,0,0)" stroke="rgb(0,0,0)" stroke-width="1" opacity="0.35294117647058826" d="M 269.5 269 L 268.5 271 L 269.5 269 Z " /><path fill="rgb(0,0,0)" stroke="rgb(0,0,0)" stroke-width="1" opacity="0.35294117647058826" d="M 191.5 271 L 192.5 273 L 191.5 271 Z " /><path fill="rgb(0,0,0)" stroke="rgb(0,0,0)" stroke-width="1" opacity="0.35294117647058826" d="M 246.5 272 L 247.5 274 L 246.5 272 Z " /><path fill="rgb(0,0,0)" stroke="rgb(0,0,0)" stroke-width="1" opacity="0.35294117647058826" d="M 265.5 272 L 264.5 274 L 265.5 272 Z " /><path fill="rgb(0,0,0)" stroke="rgb(0,0,0)" stroke-width="1" opacity="0.35294117647058826" d="M 195.5 274 L 196.5 276 L 195.5 274 Z " /><path fill="rgb(0,0,0)" stroke="rgb(0,0,0)" stroke-width="1" opacity="0.35294117647058826" d="M 250.5 275 L 251.5 277 L 250.5 275 Z " /><path fill="rgb(0,0,0)" stroke="rgb(0,0,0)" stroke-width="1" opacity="0.35294117647058826" d="M 261.5 275 L 260.5 277 L 261.5 275 Z " /><path fill="rgb(0,0,0)" stroke="rgb(0,0,0)" stroke-width="1" opacity="0.35294117647058826" d="M 199.5 277 L 200.5 279 L 199.5 277 Z " /><path fill="rgb(0,0,0)" stroke="rgb(0,0,0)" stroke-width="1" opacity="0.35294117647058826" d="M 254.5 278 L 256.5 279 L 258 278.5 L 255.5 280 L 254.5 278 Z " /><path fill="rgb(0,0,0)" stroke="rgb(0,0,0)" stroke-width="1" opacity="0.35294117647058826" d="M 203.5 280 L 204.5 282 L 203.5 280 Z " /><path fill="rgb(0,0,0)" stroke="rgb(0,0,0)" stroke-width="1" opacity="0.35294117647058826" d="M 207.5 283 L 208.5 285 L 207.5 283 Z " /><path fill="rgb(0,0,0)" stroke="rgb(0,0,0)" stroke-width="1" opacity="0.35294117647058826" d="M 211.5 286 L 212.5 288 L 211.5 286 Z " /><path fill="rgb(0,0,0)" stroke="rgb(0,0,0)" stroke-width="1" opacity="0.35294117647058826" d="M 215.5 289 L 216.5 291 L 215.5 289 Z " /><path fill="rgb(0,0,0)" stroke="rgb(0,0,0)" stroke-width="1" opacity="0.35294117647058826" d="M 219.5 292 L 220.5 294 L 219.5 292 Z " /><path fill="rgb(0,0,0)" stroke="rgb(0,0,0)" stroke-width="1" opacity="0.35294117647058826" d="M 223.5 295 L 224.5 297 L 223.5 295 Z " /><path fill="rgb(0,0,0)" stroke="rgb(0,0,0)" stroke-width="1" opacity="0.35294117647058826" d="M 227.5 298 L 228.5 300 L 227.5 298 Z " /><path fill="rgb(0,0,0)" stroke="rgb(0,0,0)" stroke-width="1" opacity="0.35294117647058826" d="M 231.5 301 L 232.5 303 L 231.5 301 Z " /><path fill="rgb(0,0,0)" stroke="rgb(0,0,0)" stroke-width="1" opacity="0.35294117647058826" d="M 235.5 304 L 236.5 306 L 235.5 304 Z " /><path fill="rgb(0,0,0)" stroke="rgb(0,0,0)" stroke-width="1" opacity="0.35294117647058826" d="M 38.5 403 L 39.5 405 L 38.5 403 Z " /><path fill="rgb(0,0,0)" stroke="rgb(0,0,0)" stroke-width="1" opacity="0.35294117647058826" d="M 473.5 403 L 472.5 405 L 473.5 403 Z " /><path fill="rgb(0,0,0)" stroke="rgb(0,0,0)" stroke-width="1" opacity="0.35294117647058826" d="M 43.5 408 L 44.5 410 L 43.5 408 Z " /><path fill="rgb(0,0,0)" stroke="rgb(0,0,0)" stroke-width="1" opacity="0.35294117647058826" d="M 468.5 408 L 467.5 410 L 468.5 408 Z " /></svg>