<svg width="512" height="512" version="1.1" xmlns="http://www.w3.org/2000/svg" desc="Created with imagetracer.js version 1.2.6" ><path fill="rgb(0,0,0)" stroke="rgb(0,0,0)" stroke-width="1" opacity="0.7215686274509804" d="M 34.5 0 L 38 0.5 L 34.5 1 L 34.5 0 Z " /><path fill="rgb(0,0,0)" stroke="rgb(0,0,0)" stroke-width="1" opacity="0.7215686274509804" d="M 474.5 0 L 478 0.5 L 474.5 1 L 474.5 0 Z " /><path fill="rgb(0,0,0)" stroke="rgb(0,0,0)" stroke-width="1" opacity="0.7215686274509804" d="M 18.5 6 L 17.5 8 L 18.5 6 Z " /><path fill="rgb(0,0,0)" stroke="rgb(0,0,0)" stroke-width="1" opacity="0.7215686274509804" d="M 493.5 6 L 494.5 8 L 493.5 6 Z " /><path fill="rgb(0,0,0)" stroke="rgb(0,0,0)" stroke-width="1" opacity="0.7215686274509804" d="M 14.5 9 L 9.5 15 L 14.5 9 Z " /><path fill="rgb(0,0,0)" stroke="rgb(0,0,0)" stroke-width="1" opacity="0.7215686274509804" d="M 497.5 9 L 502.5 15 L 497.5 9 Z " /><path fill="rgb(0,0,0)" stroke="rgb(0,0,0)" stroke-width="1" opacity="0.7215686274509804" d="M 7.5 17 L 6.5 19 L 7.5 17 Z " /><path fill="rgb(0,0,0)" stroke="rgb(0,0,0)" stroke-width="1" opacity="0.7215686274509804" d="M 504.5 17 L 505.5 19 L 504.5 17 Z " /><path fill="rgb(0,0,0)" stroke="rgb(0,0,0)" stroke-width="1" opacity="0.7215686274509804" d="M 0.5 34 L 1 37.5 L 0 37.5 L 0.5 34 Z " /><path fill="rgb(0,0,0)" stroke="rgb(0,0,0)" stroke-width="1" opacity="0.7215686274509804" d="M 511.5 34 L 512 37.5 L 511 37.5 L 511.5 34 Z " /><path fill="rgb(0,0,0)" stroke="rgb(0,0,0)" stroke-width="1" opacity="0.7215686274509804" d="M 151.5 121 L 152 390.5 L 151 390.5 L 151.5 121 Z " /><path fill="rgb(0,0,0)" stroke="rgb(0,0,0)" stroke-width="1" opacity="0.7215686274509804" d="M 259.5 121 L 266 121.5 L 259.5 122 L 259.5 121 Z " /><path fill="rgb(0,0,0)" stroke="rgb(0,0,0)" stroke-width="1" opacity="0.7215686274509804" d="M 273.5 122 L 276 122.5 L 273.5 123 L 273.5 122 Z " /><path fill="rgb(0,0,0)" stroke="rgb(0,0,0)" stroke-width="1" opacity="0.7215686274509804" d="M 329.5 141 L 330.5 143 L 329.5 141 Z " /><path fill="rgb(0,0,0)" stroke="rgb(0,0,0)" stroke-width="1" opacity="0.7215686274509804" d="M 334.5 145 L 338.5 150 L 334.5 145 Z " /><path fill="rgb(0,0,0)" stroke="rgb(0,0,0)" stroke-width="1" opacity="0.7215686274509804" d="M 341.5 153 L 342.5 155 L 341.5 153 Z " /><path fill="rgb(0,0,0)" stroke="rgb(0,0,0)" stroke-width="1" opacity="0.7215686274509804" d="M 217.5 171 L 256 171.5 L 217.5 172 L 217.5 171 Z " /><path fill="rgb(0,0,0)" stroke="rgb(0,0,0)" stroke-width="1" opacity="0.7215686274509804" d="M 354.5 186 L 355 190.5 L 354 190.5 L 354.5 186 Z " /><path fill="rgb(0,0,0)" stroke="rgb(0,0,0)" stroke-width="1" opacity="0.7215686274509804" d="M 289.5 196 L 290 198.5 L 289 198.5 L 289.5 196 Z " /><path fill="rgb(0,0,0)" stroke="rgb(0,0,0)" stroke-width="1" opacity="0.7215686274509804" d="M 354.5 202 L 355 205.5 L 354 205.5 L 354.5 202 Z " /><path fill="rgb(0,0,0)" stroke="rgb(0,0,0)" stroke-width="1" opacity="0.7215686274509804" d="M 289.5 207 L 290 209.5 L 289 209.5 L 289.5 207 Z " /><path fill="rgb(0,0,0)" stroke="rgb(0,0,0)" stroke-width="1" opacity="0.7215686274509804" d="M 279.5 226 L 278.5 228 L 279.5 226 Z " /><path fill="rgb(0,0,0)" stroke="rgb(0,0,0)" stroke-width="1" opacity="0.7215686274509804" d="M 344.5 232 L 343.5 234 L 344.5 232 Z " /><path fill="rgb(0,0,0)" stroke="rgb(0,0,0)" stroke-width="1" opacity="0.7215686274509804" d="M 217.5 233 L 254 233.5 L 217.5 234 L 217.5 233 Z " /><path fill="rgb(0,0,0)" stroke="rgb(0,0,0)" stroke-width="1" opacity="0.7215686274509804" d="M 341.5 236 L 335.5 243 L 341.5 236 Z " /><path fill="rgb(0,0,0)" stroke="rgb(0,0,0)" stroke-width="1" opacity="0.7215686274509804" d="M 331.5 245 L 330.5 247 L 331.5 245 Z " /><path fill="rgb(0,0,0)" stroke="rgb(0,0,0)" stroke-width="1" opacity="0.7215686274509804" d="M 337.5 262 L 338.5 264 L 337.5 262 Z " /><path fill="rgb(0,0,0)" stroke="rgb(0,0,0)" stroke-width="1" opacity="0.7215686274509804" d="M 342.5 266 L 346.5 271 L 342.5 266 Z " /><path fill="rgb(0,0,0)" stroke="rgb(0,0,0)" stroke-width="1" opacity="0.7215686274509804" d="M 217.5 276 L 268 276.5 L 217.5 277 L 217.5 276 Z " /><path fill="rgb(0,0,0)" stroke="rgb(0,0,0)" stroke-width="1" opacity="0.7215686274509804" d="M 284.5 282 L 286.5 285 L 284.5 282 Z " /><path fill="rgb(0,0,0)" stroke="rgb(0,0,0)" stroke-width="1" opacity="0.7215686274509804" d="M 288.5 286 L 289.5 288 L 288.5 286 Z " /><path fill="rgb(0,0,0)" stroke="rgb(0,0,0)" stroke-width="1" opacity="0.7215686274509804" d="M 360.5 305 L 361 316.5 L 360 316.5 L 360.5 305 Z " /><path fill="rgb(0,0,0)" stroke="rgb(0,0,0)" stroke-width="1" opacity="0.7215686274509804" d="M 295.5 306 L 296 314.5 L 295 314.5 L 295.5 306 Z " /><path fill="rgb(0,0,0)" stroke="rgb(0,0,0)" stroke-width="1" opacity="0.7215686274509804" d="M 287.5 331 L 286.5 333 L 287.5 331 Z " /><path fill="rgb(0,0,0)" stroke="rgb(0,0,0)" stroke-width="1" opacity="0.7215686274509804" d="M 217.5 340 L 265 340.5 L 217.5 341 L 217.5 340 Z " /><path fill="rgb(0,0,0)" stroke="rgb(0,0,0)" stroke-width="1" opacity="0.7215686274509804" d="M 346.5 359 L 344.5 362 L 346.5 359 Z " /><path fill="rgb(0,0,0)" stroke="rgb(0,0,0)" stroke-width="1" opacity="0.7215686274509804" d="M 335.5 370 L 334.5 372 L 335.5 370 Z " /><path fill="rgb(0,0,0)" stroke="rgb(0,0,0)" stroke-width="1" opacity="0.7215686274509804" d="M 282.5 389 L 286 389.5 L 282.5 390 L 282.5 389 Z " /><path fill="rgb(0,0,0)" stroke="rgb(0,0,0)" stroke-width="1" opacity="0.7215686274509804" d="M 269.5 390 L 276 390.5 L 269.5 391 L 269.5 390 Z " /><path fill="rgb(0,0,0)" stroke="rgb(0,0,0)" stroke-width="1" opacity="0.7215686274509804" d="M 0.5 474 L 1 477.5 L 0 477.5 L 0.5 474 Z " /><path fill="rgb(0,0,0)" stroke="rgb(0,0,0)" stroke-width="1" opacity="0.7215686274509804" d="M 511.5 474 L 512 477.5 L 511 477.5 L 511.5 474 Z " /><path fill="rgb(0,0,0)" stroke="rgb(0,0,0)" stroke-width="1" opacity="0.7215686274509804" d="M 6.5 493 L 7.5 495 L 6.5 493 Z " /><path fill="rgb(0,0,0)" stroke="rgb(0,0,0)" stroke-width="1" opacity="0.7215686274509804" d="M 505.5 493 L 504.5 495 L 505.5 493 Z " /><path fill="rgb(0,0,0)" stroke="rgb(0,0,0)" stroke-width="1" opacity="0.7215686274509804" d="M 9.5 497 L 14.5 503 L 9.5 497 Z " /><path fill="rgb(0,0,0)" stroke="rgb(0,0,0)" stroke-width="1" opacity="0.7215686274509804" d="M 502.5 497 L 497.5 503 L 502.5 497 Z " /><path fill="rgb(0,0,0)" stroke="rgb(0,0,0)" stroke-width="1" opacity="0.7215686274509804" d="M 17.5 504 L 18.5 506 L 17.5 504 Z " /><path fill="rgb(0,0,0)" stroke="rgb(0,0,0)" stroke-width="1" opacity="0.7215686274509804" d="M 494.5 504 L 493.5 506 L 494.5 504 Z " /><path fill="rgb(0,0,0)" stroke="rgb(0,0,0)" stroke-width="1" opacity="0.7215686274509804" d="M 34.5 511 L 38 511.5 L 34.5 512 L 34.5 511 Z " /><path fill="rgb(0,0,0)" stroke="rgb(0,0,0)" stroke-width="1" opacity="0.7215686274509804" d="M 474.5 511 L 478 511.5 L 474.5 512 L 474.5 511 Z " /><path fill="rgb(0,0,0)" stroke="rgb(0,0,0)" stroke-width="1" opacity="1" d="M 38.5 0 L 473.5 0 L 484.5 2 L 492.5 6 L 504 16.5 L 509 25.5 L 512 38.5 L 512 473.5 Q 509.5 475 511 480.5 L 506 492.5 L 495.5 504 L 486.5 509 L 473.5 512 L 38.5 512 Q 37 509.5 31.5 511 L 19.5 506 L 8 495.5 L 3 486.5 L 0 473.5 L 0 38.5 Q 2.5 37 1 31.5 L 6 19.5 L 16.5 8 L 25.5 3 L 38.5 0 Z M 151 121 L 151 391 L 276 391 L 277 390 L 286 390 L 312 384 L 335 372 Q 348 362 355 346 L 359 333 L 360 318 L 361 317 L 361 306 L 360 305 L 359 294 Q 355 280 347 271 Q 337 259 322 254 Q 318 255 319 252 Q 329 250 336 243 L 348 228 L 355 206 L 355 187 L 353 176 Q 349 160 339 150 Q 330 139 317 133 L 301 127 L 283 123 L 267 122 L 266 121 L 151 121 Z " /><path fill="rgb(0,0,0)" stroke="rgb(0,0,0)" stroke-width="1" opacity="1" d="M 217 172 L 261.5 172 L 273.5 175 L 284 182.5 L 289 193.5 L 290 206.5 L 288 215.5 Q 285.8 222.3 280.5 226 L 273.5 230 L 261.5 233 L 217 233 L 217 172 Z " /><path fill="rgb(0,0,0)" stroke="rgb(0,0,0)" stroke-width="1" opacity="1" d="M 217 277 L 271.5 277 L 278.5 279 L 288 285 L 294 296.5 L 295 301.5 L 295 317.5 Q 292.4 328.4 284.5 334 Q 278.5 338.5 269.5 340 L 217 340 L 217 277 Z " /><path fill="rgb(0,0,0)" stroke="rgb(0,0,0)" stroke-width="1" opacity="0.23921568627450981" d="M 16.5 7 L 15.5 9 L 16.5 7 Z " /><path fill="rgb(0,0,0)" stroke="rgb(0,0,0)" stroke-width="1" opacity="0.23921568627450981" d="M 495.5 7 L 496.5 9 L 495.5 7 Z " /><path fill="rgb(0,0,0)" stroke="rgb(0,0,0)" stroke-width="1" opacity="0.23921568627450981" d="M 8.5 15 L 7.5 17 L 8.5 15 Z " /><path fill="rgb(0,0,0)" stroke="rgb(0,0,0)" stroke-width="1" opacity="0.23921568627450981" d="M 503.5 15 L 504.5 17 L 503.5 15 Z " /><path fill="rgb(0,0,0)" stroke="rgb(0,0,0)" stroke-width="1" opacity="0.23921568627450981" d="M 152.5 121 L 259 121.5 L 152.5 122 L 152.5 121 Z " /><path fill="rgb(0,0,0)" stroke="rgb(0,0,0)" stroke-width="1" opacity="0.23921568627450981" d="M 269.5 122 L 273 122.5 L 269.5 123 L 269.5 122 Z " /><path fill="rgb(0,0,0)" stroke="rgb(0,0,0)" stroke-width="1" opacity="0.23921568627450981" d="M 331.5 143 L 332.5 145 L 331.5 143 Z " /><path fill="rgb(0,0,0)" stroke="rgb(0,0,0)" stroke-width="1" opacity="0.23921568627450981" d="M 339.5 151 L 340.5 153 L 339.5 151 Z " /><path fill="rgb(0,0,0)" stroke="rgb(0,0,0)" stroke-width="1" opacity="0.23921568627450981" d="M 216.5 171 L 217 233.5 L 216 233.5 L 216.5 171 Z " /><path fill="rgb(0,0,0)" stroke="rgb(0,0,0)" stroke-width="1" opacity="0.23921568627450981" d="M 256.5 171 L 260 171.5 L 256.5 172 L 256.5 171 Z " /><path fill="rgb(0,0,0)" stroke="rgb(0,0,0)" stroke-width="1" opacity="0.23921568627450981" d="M 281.5 179 L 283.5 182 L 281.5 179 Z " /><path fill="rgb(0,0,0)" stroke="rgb(0,0,0)" stroke-width="1" opacity="0.23921568627450981" d="M 354.5 191 L 355 201.5 L 354 201.5 L 354.5 191 Z " /><path fill="rgb(0,0,0)" stroke="rgb(0,0,0)" stroke-width="1" opacity="0.23921568627450981" d="M 353.5 207 L 354 209.5 L 353 209.5 L 353.5 207 Z " /><path fill="rgb(0,0,0)" stroke="rgb(0,0,0)" stroke-width="1" opacity="0.23921568627450981" d="M 284.5 222 L 280.5 227 L 284.5 222 Z " /><path fill="rgb(0,0,0)" stroke="rgb(0,0,0)" stroke-width="1" opacity="0.23921568627450981" d="M 345.5 230 L 344.5 232 L 345.5 230 Z " /><path fill="rgb(0,0,0)" stroke="rgb(0,0,0)" stroke-width="1" opacity="0.23921568627450981" d="M 254.5 233 L 259 233.5 L 254.5 234 L 254.5 233 Z " /><path fill="rgb(0,0,0)" stroke="rgb(0,0,0)" stroke-width="1" opacity="0.23921568627450981" d="M 342.5 234 L 341.5 236 L 342.5 234 Z " /><path fill="rgb(0,0,0)" stroke="rgb(0,0,0)" stroke-width="1" opacity="0.23921568627450981" d="M 333.5 243 L 332.5 245 L 333.5 243 Z " /><path fill="rgb(0,0,0)" stroke="rgb(0,0,0)" stroke-width="1" opacity="0.23921568627450981" d="M 318.5 252 L 317.5 254 L 318.5 252 Z " /><path fill="rgb(0,0,0)" stroke="rgb(0,0,0)" stroke-width="1" opacity="0.23921568627450981" d="M 335.5 261 L 336.5 263 L 335.5 261 Z " /><path fill="rgb(0,0,0)" stroke="rgb(0,0,0)" stroke-width="1" opacity="0.23921568627450981" d="M 339.5 264 L 340.5 266 L 339.5 264 Z " /><path fill="rgb(0,0,0)" stroke="rgb(0,0,0)" stroke-width="1" opacity="0.23921568627450981" d="M 346.5 271 L 348.5 274 L 346.5 271 Z " /><path fill="rgb(0,0,0)" stroke="rgb(0,0,0)" stroke-width="1" opacity="0.23921568627450981" d="M 216.5 276 L 217 340.5 L 216 340.5 L 216.5 276 Z " /><path fill="rgb(0,0,0)" stroke="rgb(0,0,0)" stroke-width="1" opacity="0.23921568627450981" d="M 268.5 276 L 271 276.5 L 268.5 277 L 268.5 276 Z " /><path fill="rgb(0,0,0)" stroke="rgb(0,0,0)" stroke-width="1" opacity="0.23921568627450981" d="M 359.5 299 L 360 301.5 L 359 301.5 L 359.5 299 Z " /><path fill="rgb(0,0,0)" stroke="rgb(0,0,0)" stroke-width="1" opacity="0.23921568627450981" d="M 295.5 302 L 296 305.5 L 295 305.5 L 295.5 302 Z " /><path fill="rgb(0,0,0)" stroke="rgb(0,0,0)" stroke-width="1" opacity="0.23921568627450981" d="M 359.5 321 L 360 324.5 L 359 324.5 L 359.5 321 Z " /><path fill="rgb(0,0,0)" stroke="rgb(0,0,0)" stroke-width="1" opacity="0.23921568627450981" d="M 290.5 328 L 288.5 331 L 290.5 328 Z " /><path fill="rgb(0,0,0)" stroke="rgb(0,0,0)" stroke-width="1" opacity="0.23921568627450981" d="M 285.5 333 L 284.5 335 L 285.5 333 Z " /><path fill="rgb(0,0,0)" stroke="rgb(0,0,0)" stroke-width="1" opacity="0.23921568627450981" d="M 265.5 340 L 268 340.5 L 265.5 341 L 265.5 340 Z " /><path fill="rgb(0,0,0)" stroke="rgb(0,0,0)" stroke-width="1" opacity="0.23921568627450981" d="M 347.5 357 L 346.5 359 L 347.5 357 Z " /><path fill="rgb(0,0,0)" stroke="rgb(0,0,0)" stroke-width="1" opacity="0.23921568627450981" d="M 343.5 362 L 336.5 370 L 343.5 362 Z " /><path fill="rgb(0,0,0)" stroke="rgb(0,0,0)" stroke-width="1" opacity="0.23921568627450981" d="M 333.5 371 L 332.5 373 L 333.5 371 Z " /><path fill="rgb(0,0,0)" stroke="rgb(0,0,0)" stroke-width="1" opacity="0.23921568627450981" d="M 279.5 389 L 282 389.5 L 279.5 390 L 279.5 389 Z " /><path fill="rgb(0,0,0)" stroke="rgb(0,0,0)" stroke-width="1" opacity="0.23921568627450981" d="M 152.5 390 L 269 390.5 L 152.5 391 L 152.5 390 Z " /><path fill="rgb(0,0,0)" stroke="rgb(0,0,0)" stroke-width="1" opacity="0.23921568627450981" d="M 7.5 495 L 8.5 497 L 7.5 495 Z " /><path fill="rgb(0,0,0)" stroke="rgb(0,0,0)" stroke-width="1" opacity="0.23921568627450981" d="M 504.5 495 L 503.5 497 L 504.5 495 Z " /><path fill="rgb(0,0,0)" stroke="rgb(0,0,0)" stroke-width="1" opacity="0.23921568627450981" d="M 15.5 503 L 16.5 505 L 15.5 503 Z " /><path fill="rgb(0,0,0)" stroke="rgb(0,0,0)" stroke-width="1" opacity="0.23921568627450981" d="M 496.5 503 L 495.5 505 L 496.5 503 Z " /><path fill="rgb(0,0,0)" stroke="rgb(0,0,0)" stroke-width="1" opacity="0" d="M 0 0 L 32 0.5 Q 15.1 4.1 7 16.5 Q 1.9 22.4 0.5 32 L 0 0 Z " /><path fill="rgb(0,0,0)" stroke="rgb(0,0,0)" stroke-width="1" opacity="0" d="M 480.5 0 L 512 0 L 512 31.5 L 511 31.5 Q 507.8 14.7 495.5 7 Q 490.3 1.7 480.5 1 L 480.5 0 Z " /><path fill="rgb(0,0,0)" stroke="rgb(0,0,0)" stroke-width="1" opacity="0" d="M 152 122 L 268.5 122 L 269.5 123 L 278.5 123 L 294.5 126 L 312.5 132 Q 328.3 138.7 339 150.5 Q 347.8 160.2 352 174.5 L 354 184.5 L 354 206.5 Q 349.9 230.4 334.5 243 L 317 253.5 Q 335.3 258.2 346 270.5 Q 362.2 286.3 360 320.5 L 357 337.5 L 349 355.5 L 334.5 371 L 312.5 383 L 298.5 387 L 287.5 389 L 279.5 389 L 278.5 390 L 152 390 L 152 122 Z M 216 171 L 216 234 L 259 234 L 270 232 L 281 227 Q 288 222 290 212 Q 293 191 284 182 L 273 174 L 260 171 L 216 171 Z M 216 276 L 216 341 L 268 341 L 277 339 L 285 335 Q 293 329 296 317 L 295 298 L 288 284 Q 281 278 271 276 L 216 276 Z " /><path fill="rgb(0,0,0)" stroke="rgb(0,0,0)" stroke-width="1" opacity="0" d="M 0.5 480 Q 4.1 496.9 16.5 505 Q 22.8 509.8 32 511.5 L 0 512 L 0.5 480 Z " /><path fill="rgb(0,0,0)" stroke="rgb(0,0,0)" stroke-width="1" opacity="0" d="M 511.5 480 L 512 512 L 480 511.5 Q 496.9 507.9 505 495.5 Q 510.1 489.6 511.5 480 Z " /></svg>