<svg width="512" height="512" version="1.1" xmlns="http://www.w3.org/2000/svg" desc="Created with imagetracer.js version 1.2.6" ><path fill="rgb(0,0,0)" stroke="rgb(0,0,0)" stroke-width="1" opacity="0" d="M 0 0 L 96 0.5 Q 80.8 2.8 71.5 11 L 23 58.5 Q 10.3 71.8 4 91.5 L 1 107.5 L 1 132.5 L 2 133.5 L 2 141.5 L 5 157.5 L 15 191.5 Q 28.9 229.1 48 261.5 Q 89.2 330.8 145.5 385 Q 195.2 432.8 257.5 468 L 288.5 484 L 327.5 500 L 356.5 508 L 382 511.5 L 0 512 L 0 0 Z " /><path fill="rgb(0,0,0)" stroke="rgb(0,0,0)" stroke-width="1" opacity="0" d="M 110.5 0 L 512 0 L 512 512 L 404 511.5 L 419.5 509 L 436.5 502 Q 451.2 493.2 462 480.5 L 502 438.5 L 509 424.5 L 511 415.5 L 511 402.5 Q 508.1 386.4 499 376.5 L 423.5 301 L 403.5 291 L 387.5 290 L 378.5 292 L 364.5 299 L 316.5 345 Q 290.5 333 269.5 316 Q 241.5 294.5 218 268.5 L 189 233.5 L 172 206.5 L 167 193.5 L 206 155.5 Q 215.3 146.8 220 133.5 L 222 125.5 L 222 111.5 Q 219.3 97.7 212 88.5 L 139.5 15 L 127.5 6 L 118.5 2 L 110.5 1 L 110.5 0 Z " /><path fill="rgb(0,0,0)" stroke="rgb(0,0,0)" stroke-width="1" opacity="0" d="M 100.5 26 L 106.5 26 L 117.5 31 L 152 64.5 L 191 104.5 Q 195.8 110.2 196 120.5 Q 194.1 130.6 188 136.5 L 153.5 171 L 144 179.5 Q 139.2 184.2 139 193.5 L 141 202.5 L 148 217.5 L 166 246.5 Q 194.3 285.3 229.5 317 Q 253.1 338.4 280.5 356 L 308.5 371 L 314.5 373 L 320.5 373 L 330.5 369 L 376.5 323 L 387.5 317 L 397.5 317 L 407.5 322 L 479 393.5 Q 485.3 399.7 485 412.5 L 480 424.5 L 459.5 446 L 448 456.5 L 430.5 475 Q 414.9 488.4 383.5 486 L 354.5 481 L 334.5 475 L 298.5 460 L 269.5 445 Q 199.3 405.3 146 348.5 Q 99.5 299.5 65 238.5 Q 46.5 205 34 165.5 L 28 138.5 L 27 110.5 L 29 99.5 L 32 91.5 L 38 81.5 L 84.5 34 Q 90.5 28 100.5 26 Z " /><path fill="rgb(0,0,0)" stroke="rgb(0,0,0)" stroke-width="1" opacity="0.807843137254902" d="M 96.5 0 L 101 0.5 L 96.5 1 L 96.5 0 Z " /><path fill="rgb(0,0,0)" stroke="rgb(0,0,0)" stroke-width="1" opacity="0.807843137254902" d="M 105.5 0 L 110 0.5 L 105.5 1 L 105.5 0 Z " /><path fill="rgb(0,0,0)" stroke="rgb(0,0,0)" stroke-width="1" opacity="0.807843137254902" d="M 127.5 6 L 128.5 8 L 127.5 6 Z " /><path fill="rgb(0,0,0)" stroke="rgb(0,0,0)" stroke-width="1" opacity="0.807843137254902" d="M 75.5 8 L 74.5 10 L 75.5 8 Z " /><path fill="rgb(0,0,0)" stroke="rgb(0,0,0)" stroke-width="1" opacity="0.807843137254902" d="M 133.5 10 L 136.5 14 L 133.5 10 Z " /><path fill="rgb(0,0,0)" stroke="rgb(0,0,0)" stroke-width="1" opacity="0.807843137254902" d="M 71.5 11 L 69.5 14 L 71.5 11 Z " /><path fill="rgb(0,0,0)" stroke="rgb(0,0,0)" stroke-width="1" opacity="0.807843137254902" d="M 66.5 15 L 23.5 59 L 66.5 15 Z " /><path fill="rgb(0,0,0)" stroke="rgb(0,0,0)" stroke-width="1" opacity="0.807843137254902" d="M 139.5 15 L 205.5 82 L 139.5 15 Z " /><path fill="rgb(0,0,0)" stroke="rgb(0,0,0)" stroke-width="1" opacity="0.807843137254902" d="M 97.5 26 L 100 26.5 L 97.5 27 L 97.5 26 Z " /><path fill="rgb(0,0,0)" stroke="rgb(0,0,0)" stroke-width="1" opacity="0.807843137254902" d="M 90.5 29 L 89.5 31 L 90.5 29 Z " /><path fill="rgb(0,0,0)" stroke="rgb(0,0,0)" stroke-width="1" opacity="0.807843137254902" d="M 115.5 29 L 116.5 31 L 115.5 29 Z " /><path fill="rgb(0,0,0)" stroke="rgb(0,0,0)" stroke-width="1" opacity="0.807843137254902" d="M 87.5 31 L 85.5 34 L 87.5 31 Z " /><path fill="rgb(0,0,0)" stroke="rgb(0,0,0)" stroke-width="1" opacity="0.807843137254902" d="M 118.5 31 L 129.5 43 L 118.5 31 Z " /><path fill="rgb(0,0,0)" stroke="rgb(0,0,0)" stroke-width="1" opacity="0.807843137254902" d="M 19.5 63 L 18.5 65 L 19.5 63 Z " /><path fill="rgb(0,0,0)" stroke="rgb(0,0,0)" stroke-width="1" opacity="0.807843137254902" d="M 152.5 65 L 189.5 103 L 152.5 65 Z " /><path fill="rgb(0,0,0)" stroke="rgb(0,0,0)" stroke-width="1" opacity="0.807843137254902" d="M 16.5 67 L 15.5 69 L 16.5 67 Z " /><path fill="rgb(0,0,0)" stroke="rgb(0,0,0)" stroke-width="1" opacity="0.807843137254902" d="M 14.5 70 L 13.5 72 L 14.5 70 Z " /><path fill="rgb(0,0,0)" stroke="rgb(0,0,0)" stroke-width="1" opacity="0.807843137254902" d="M 42.5 76 L 39.5 80 L 42.5 76 Z " /><path fill="rgb(0,0,0)" stroke="rgb(0,0,0)" stroke-width="1" opacity="0.807843137254902" d="M 10.5 77 L 10 78.5 L 8.5 82 L 8 80.5 L 10.5 77 Z " /><path fill="rgb(0,0,0)" stroke="rgb(0,0,0)" stroke-width="1" opacity="0.807843137254902" d="M 37.5 82 L 36.5 84 L 37.5 82 Z " /><path fill="rgb(0,0,0)" stroke="rgb(0,0,0)" stroke-width="1" opacity="0.807843137254902" d="M 208.5 85 L 211.5 89 L 208.5 85 Z " /><path fill="rgb(0,0,0)" stroke="rgb(0,0,0)" stroke-width="1" opacity="0.807843137254902" d="M 34.5 87 L 33.5 89 L 34.5 87 Z " /><path fill="rgb(0,0,0)" stroke="rgb(0,0,0)" stroke-width="1" opacity="0.807843137254902" d="M 212.5 90 L 213.5 92 L 212.5 90 Z " /><path fill="rgb(0,0,0)" stroke="rgb(0,0,0)" stroke-width="1" opacity="0.807843137254902" d="M 214.5 93 L 215.5 95 L 214.5 93 Z " /><path fill="rgb(0,0,0)" stroke="rgb(0,0,0)" stroke-width="1" opacity="0.807843137254902" d="M 2.5 100 L 3 102.5 L 2 102.5 L 2.5 100 Z " /><path fill="rgb(0,0,0)" stroke="rgb(0,0,0)" stroke-width="1" opacity="0.807843137254902" d="M 28.5 101 L 29 103.5 L 28 103.5 L 28.5 101 Z " /><path fill="rgb(0,0,0)" stroke="rgb(0,0,0)" stroke-width="1" opacity="0.807843137254902" d="M 1.5 107 L 2 114.5 L 1 114.5 L 1.5 107 Z " /><path fill="rgb(0,0,0)" stroke="rgb(0,0,0)" stroke-width="1" opacity="0.807843137254902" d="M 27.5 107 L 28 109.5 L 27 109.5 L 27.5 107 Z " /><path fill="rgb(0,0,0)" stroke="rgb(0,0,0)" stroke-width="1" opacity="0.807843137254902" d="M 192.5 107 L 193.5 109 L 192.5 107 Z " /><path fill="rgb(0,0,0)" stroke="rgb(0,0,0)" stroke-width="1" opacity="0.807843137254902" d="M 221.5 111 L 222 114.5 L 221 114.5 L 221.5 111 Z " /><path fill="rgb(0,0,0)" stroke="rgb(0,0,0)" stroke-width="1" opacity="0.807843137254902" d="M 195.5 113 L 196 115.5 L 195 115.5 L 195.5 113 Z " /><path fill="rgb(0,0,0)" stroke="rgb(0,0,0)" stroke-width="1" opacity="0.807843137254902" d="M 195.5 121 L 196 123.5 L 195 123.5 L 195.5 121 Z " /><path fill="rgb(0,0,0)" stroke="rgb(0,0,0)" stroke-width="1" opacity="0.807843137254902" d="M 221.5 122 L 222 125.5 L 221 125.5 L 221.5 122 Z " /><path fill="rgb(0,0,0)" stroke="rgb(0,0,0)" stroke-width="1" opacity="0.807843137254902" d="M 1.5 124 L 2 132.5 L 1 132.5 L 1.5 124 Z " /><path fill="rgb(0,0,0)" stroke="rgb(0,0,0)" stroke-width="1" opacity="0.807843137254902" d="M 27.5 130 L 28 135.5 L 27 135.5 L 27.5 130 Z " /><path fill="rgb(0,0,0)" stroke="rgb(0,0,0)" stroke-width="1" opacity="0.807843137254902" d="M 192.5 130 L 191.5 132 L 192.5 130 Z " /><path fill="rgb(0,0,0)" stroke="rgb(0,0,0)" stroke-width="1" opacity="0.807843137254902" d="M 190.5 133 L 188.5 136 L 190.5 133 Z " /><path fill="rgb(0,0,0)" stroke="rgb(0,0,0)" stroke-width="1" opacity="0.807843137254902" d="M 2.5 138 L 3 141.5 L 2 141.5 L 2.5 138 Z " /><path fill="rgb(0,0,0)" stroke="rgb(0,0,0)" stroke-width="1" opacity="0.807843137254902" d="M 28.5 139 L 29 141.5 L 28 141.5 L 28.5 139 Z " /><path fill="rgb(0,0,0)" stroke="rgb(0,0,0)" stroke-width="1" opacity="0.807843137254902" d="M 185.5 139 L 159.5 166 L 185.5 139 Z " /><path fill="rgb(0,0,0)" stroke="rgb(0,0,0)" stroke-width="1" opacity="0.807843137254902" d="M 215.5 142 L 214.5 144 L 215.5 142 Z " /><path fill="rgb(0,0,0)" stroke="rgb(0,0,0)" stroke-width="1" opacity="0.807843137254902" d="M 3.5 145 L 4 148.5 L 3 148.5 L 3.5 145 Z " /><path fill="rgb(0,0,0)" stroke="rgb(0,0,0)" stroke-width="1" opacity="0.807843137254902" d="M 213.5 145 L 212.5 147 L 213.5 145 Z " /><path fill="rgb(0,0,0)" stroke="rgb(0,0,0)" stroke-width="1" opacity="0.807843137254902" d="M 211.5 148 L 208.5 152 L 211.5 148 Z " /><path fill="rgb(0,0,0)" stroke="rgb(0,0,0)" stroke-width="1" opacity="0.807843137254902" d="M 30.5 149 L 31 151.5 L 30 151.5 L 30.5 149 Z " /><path fill="rgb(0,0,0)" stroke="rgb(0,0,0)" stroke-width="1" opacity="0.807843137254902" d="M 205.5 155 L 171.5 190 L 205.5 155 Z " /><path fill="rgb(0,0,0)" stroke="rgb(0,0,0)" stroke-width="1" opacity="0.807843137254902" d="M 152.5 171 L 144.5 180 L 152.5 171 Z " /><path fill="rgb(0,0,0)" stroke="rgb(0,0,0)" stroke-width="1" opacity="0.807843137254902" d="M 139.5 190 L 140 193.5 L 139 193.5 L 139.5 190 Z " /><path fill="rgb(0,0,0)" stroke="rgb(0,0,0)" stroke-width="1" opacity="0.807843137254902" d="M 168.5 198 L 170 201.5 L 169 201.5 L 168.5 198 Z " /><path fill="rgb(0,0,0)" stroke="rgb(0,0,0)" stroke-width="1" opacity="0.807843137254902" d="M 172.5 207 L 173.5 209 L 172.5 207 Z " /><path fill="rgb(0,0,0)" stroke="rgb(0,0,0)" stroke-width="1" opacity="0.807843137254902" d="M 176.5 214 L 177.5 216 L 176.5 214 Z " /><path fill="rgb(0,0,0)" stroke="rgb(0,0,0)" stroke-width="1" opacity="0.807843137254902" d="M 148.5 217 L 149.5 219 L 148.5 217 Z " /><path fill="rgb(0,0,0)" stroke="rgb(0,0,0)" stroke-width="1" opacity="0.807843137254902" d="M 179.5 219 L 180.5 221 L 179.5 219 Z " /><path fill="rgb(0,0,0)" stroke="rgb(0,0,0)" stroke-width="1" opacity="0.807843137254902" d="M 181.5 222 L 182.5 224 L 181.5 222 Z " /><path fill="rgb(0,0,0)" stroke="rgb(0,0,0)" stroke-width="1" opacity="0.807843137254902" d="M 152.5 224 L 153.5 226 L 152.5 224 Z " /><path fill="rgb(0,0,0)" stroke="rgb(0,0,0)" stroke-width="1" opacity="0.807843137254902" d="M 183.5 225 L 184.5 227 L 183.5 225 Z " /><path fill="rgb(0,0,0)" stroke="rgb(0,0,0)" stroke-width="1" opacity="0.807843137254902" d="M 185.5 228 L 186.5 230 L 185.5 228 Z " /><path fill="rgb(0,0,0)" stroke="rgb(0,0,0)" stroke-width="1" opacity="0.807843137254902" d="M 156.5 231 L 157.5 233 L 156.5 231 Z " /><path fill="rgb(0,0,0)" stroke="rgb(0,0,0)" stroke-width="1" opacity="0.807843137254902" d="M 187.5 231 L 188.5 233 L 187.5 231 Z " /><path fill="rgb(0,0,0)" stroke="rgb(0,0,0)" stroke-width="1" opacity="0.807843137254902" d="M 158.5 234 L 159.5 236 L 158.5 234 Z " /><path fill="rgb(0,0,0)" stroke="rgb(0,0,0)" stroke-width="1" opacity="0.807843137254902" d="M 190.5 235 L 192.5 238 L 190.5 235 Z " /><path fill="rgb(0,0,0)" stroke="rgb(0,0,0)" stroke-width="1" opacity="0.807843137254902" d="M 160.5 237 L 161.5 239 L 160.5 237 Z " /><path fill="rgb(0,0,0)" stroke="rgb(0,0,0)" stroke-width="1" opacity="0.807843137254902" d="M 36.5 239 L 39 242.5 L 37 241.5 L 36.5 239 Z " /><path fill="rgb(0,0,0)" stroke="rgb(0,0,0)" stroke-width="1" opacity="0.807843137254902" d="M 65.5 239 L 66.5 241 L 65.5 239 Z " /><path fill="rgb(0,0,0)" stroke="rgb(0,0,0)" stroke-width="1" opacity="0.807843137254902" d="M 193.5 239 L 195.5 242 L 193.5 239 Z " /><path fill="rgb(0,0,0)" stroke="rgb(0,0,0)" stroke-width="1" opacity="0.807843137254902" d="M 162.5 240 L 163.5 242 L 162.5 240 Z " /><path fill="rgb(0,0,0)" stroke="rgb(0,0,0)" stroke-width="1" opacity="0.807843137254902" d="M 164.5 243 L 165.5 245 L 164.5 243 Z " /><path fill="rgb(0,0,0)" stroke="rgb(0,0,0)" stroke-width="1" opacity="0.807843137254902" d="M 196.5 243 L 198.5 246 L 196.5 243 Z " /><path fill="rgb(0,0,0)" stroke="rgb(0,0,0)" stroke-width="1" opacity="0.807843137254902" d="M 69.5 246 L 70.5 248 L 69.5 246 Z " /><path fill="rgb(0,0,0)" stroke="rgb(0,0,0)" stroke-width="1" opacity="0.807843137254902" d="M 166.5 246 L 167.5 248 L 166.5 246 Z " /><path fill="rgb(0,0,0)" stroke="rgb(0,0,0)" stroke-width="1" opacity="0.807843137254902" d="M 200.5 248 L 203.5 252 L 200.5 248 Z " /><path fill="rgb(0,0,0)" stroke="rgb(0,0,0)" stroke-width="1" opacity="0.807843137254902" d="M 169.5 250 L 170.5 252 L 169.5 250 Z " /><path fill="rgb(0,0,0)" stroke="rgb(0,0,0)" stroke-width="1" opacity="0.807843137254902" d="M 73.5 253 L 74.5 255 L 73.5 253 Z " /><path fill="rgb(0,0,0)" stroke="rgb(0,0,0)" stroke-width="1" opacity="0.807843137254902" d="M 44.5 254 L 45.5 256 L 44.5 254 Z " /><path fill="rgb(0,0,0)" stroke="rgb(0,0,0)" stroke-width="1" opacity="0.807843137254902" d="M 172.5 254 L 173.5 256 L 172.5 254 Z " /><path fill="rgb(0,0,0)" stroke="rgb(0,0,0)" stroke-width="1" opacity="0.807843137254902" d="M 205.5 254 L 208.5 258 L 205.5 254 Z " /><path fill="rgb(0,0,0)" stroke="rgb(0,0,0)" stroke-width="1" opacity="0.807843137254902" d="M 75.5 256 L 76.5 258 L 75.5 256 Z " /><path fill="rgb(0,0,0)" stroke="rgb(0,0,0)" stroke-width="1" opacity="0.807843137254902" d="M 175.5 258 L 177.5 261 L 175.5 258 Z " /><path fill="rgb(0,0,0)" stroke="rgb(0,0,0)" stroke-width="1" opacity="0.807843137254902" d="M 48.5 261 L 49.5 263 L 48.5 261 Z " /><path fill="rgb(0,0,0)" stroke="rgb(0,0,0)" stroke-width="1" opacity="0.807843137254902" d="M 78.5 261 L 79.5 263 L 78.5 261 Z " /><path fill="rgb(0,0,0)" stroke="rgb(0,0,0)" stroke-width="1" opacity="0.807843137254902" d="M 178.5 262 L 181.5 266 L 178.5 262 Z " /><path fill="rgb(0,0,0)" stroke="rgb(0,0,0)" stroke-width="1" opacity="0.807843137254902" d="M 212.5 262 L 217.5 268 L 212.5 262 Z " /><path fill="rgb(0,0,0)" stroke="rgb(0,0,0)" stroke-width="1" opacity="0.807843137254902" d="M 80.5 264 L 81.5 266 L 80.5 264 Z " /><path fill="rgb(0,0,0)" stroke="rgb(0,0,0)" stroke-width="1" opacity="0.807843137254902" d="M 183.5 268 L 186.5 272 L 183.5 268 Z " /><path fill="rgb(0,0,0)" stroke="rgb(0,0,0)" stroke-width="1" opacity="0.807843137254902" d="M 54.5 271 L 55.5 273 L 54.5 271 Z " /><path fill="rgb(0,0,0)" stroke="rgb(0,0,0)" stroke-width="1" opacity="0.807843137254902" d="M 85.5 272 L 86.5 274 L 85.5 272 Z " /><path fill="rgb(0,0,0)" stroke="rgb(0,0,0)" stroke-width="1" opacity="0.807843137254902" d="M 221.5 272 L 238.5 290 L 221.5 272 Z " /><path fill="rgb(0,0,0)" stroke="rgb(0,0,0)" stroke-width="1" opacity="0.807843137254902" d="M 188.5 274 L 192.5 279 L 188.5 274 Z " /><path fill="rgb(0,0,0)" stroke="rgb(0,0,0)" stroke-width="1" opacity="0.807843137254902" d="M 59.5 279 L 60.5 281 L 59.5 279 Z " /><path fill="rgb(0,0,0)" stroke="rgb(0,0,0)" stroke-width="1" opacity="0.807843137254902" d="M 90.5 279 L 91.5 281 L 90.5 279 Z " /><path fill="rgb(0,0,0)" stroke="rgb(0,0,0)" stroke-width="1" opacity="0.807843137254902" d="M 61.5 282 L 62.5 284 L 61.5 282 Z " /><path fill="rgb(0,0,0)" stroke="rgb(0,0,0)" stroke-width="1" opacity="0.807843137254902" d="M 92.5 282 L 93.5 284 L 92.5 282 Z " /><path fill="rgb(0,0,0)" stroke="rgb(0,0,0)" stroke-width="1" opacity="0.807843137254902" d="M 196.5 283 L 202.5 290 L 196.5 283 Z " /><path fill="rgb(0,0,0)" stroke="rgb(0,0,0)" stroke-width="1" opacity="0.807843137254902" d="M 94.5 285 L 95.5 287 L 94.5 285 Z " /><path fill="rgb(0,0,0)" stroke="rgb(0,0,0)" stroke-width="1" opacity="0.807843137254902" d="M 65.5 288 L 66.5 290 L 65.5 288 Z " /><path fill="rgb(0,0,0)" stroke="rgb(0,0,0)" stroke-width="1" opacity="0.807843137254902" d="M 97.5 289 L 98.5 291 L 97.5 289 Z " /><path fill="rgb(0,0,0)" stroke="rgb(0,0,0)" stroke-width="1" opacity="0.807843137254902" d="M 387.5 290 L 398 290.5 L 387.5 291 L 387.5 290 Z " /><path fill="rgb(0,0,0)" stroke="rgb(0,0,0)" stroke-width="1" opacity="0.807843137254902" d="M 67.5 291 L 68.5 293 L 67.5 291 Z " /><path fill="rgb(0,0,0)" stroke="rgb(0,0,0)" stroke-width="1" opacity="0.807843137254902" d="M 401.5 291 L 404 291.5 L 401.5 292 L 401.5 291 Z " /><path fill="rgb(0,0,0)" stroke="rgb(0,0,0)" stroke-width="1" opacity="0.807843137254902" d="M 99.5 292 L 101.5 295 L 99.5 292 Z " /><path fill="rgb(0,0,0)" stroke="rgb(0,0,0)" stroke-width="1" opacity="0.807843137254902" d="M 69.5 294 L 70.5 296 L 69.5 294 Z " /><path fill="rgb(0,0,0)" stroke="rgb(0,0,0)" stroke-width="1" opacity="0.807843137254902" d="M 102.5 296 L 104.5 299 L 102.5 296 Z " /><path fill="rgb(0,0,0)" stroke="rgb(0,0,0)" stroke-width="1" opacity="0.807843137254902" d="M 246.5 296 L 250.5 301 L 246.5 296 Z " /><path fill="rgb(0,0,0)" stroke="rgb(0,0,0)" stroke-width="1" opacity="0.807843137254902" d="M 367.5 297 L 366.5 299 L 367.5 297 Z " /><path fill="rgb(0,0,0)" stroke="rgb(0,0,0)" stroke-width="1" opacity="0.807843137254902" d="M 364.5 299 L 362.5 302 L 364.5 299 Z " /><path fill="rgb(0,0,0)" stroke="rgb(0,0,0)" stroke-width="1" opacity="0.807843137254902" d="M 105.5 300 L 107.5 303 L 105.5 300 Z " /><path fill="rgb(0,0,0)" stroke="rgb(0,0,0)" stroke-width="1" opacity="0.807843137254902" d="M 74.5 301 L 75.5 303 L 74.5 301 Z " /><path fill="rgb(0,0,0)" stroke="rgb(0,0,0)" stroke-width="1" opacity="0.807843137254902" d="M 423.5 301 L 427.5 306 L 423.5 301 Z " /><path fill="rgb(0,0,0)" stroke="rgb(0,0,0)" stroke-width="1" opacity="0.807843137254902" d="M 254.5 303 L 257.5 307 L 254.5 303 Z " /><path fill="rgb(0,0,0)" stroke="rgb(0,0,0)" stroke-width="1" opacity="0.807843137254902" d="M 359.5 303 L 356.5 307 L 359.5 303 Z " /><path fill="rgb(0,0,0)" stroke="rgb(0,0,0)" stroke-width="1" opacity="0.807843137254902" d="M 76.5 304 L 77.5 306 L 76.5 304 Z " /><path fill="rgb(0,0,0)" stroke="rgb(0,0,0)" stroke-width="1" opacity="0.807843137254902" d="M 108.5 304 L 110.5 307 L 108.5 304 Z " /><path fill="rgb(0,0,0)" stroke="rgb(0,0,0)" stroke-width="1" opacity="0.807843137254902" d="M 79.5 308 L 80.5 310 L 79.5 308 Z " /><path fill="rgb(0,0,0)" stroke="rgb(0,0,0)" stroke-width="1" opacity="0.807843137254902" d="M 260.5 308 L 262.5 311 L 260.5 308 Z " /><path fill="rgb(0,0,0)" stroke="rgb(0,0,0)" stroke-width="1" opacity="0.807843137254902" d="M 112.5 309 L 114.5 312 L 112.5 309 Z " /><path fill="rgb(0,0,0)" stroke="rgb(0,0,0)" stroke-width="1" opacity="0.807843137254902" d="M 222.5 309 L 229.5 317 L 222.5 309 Z " /><path fill="rgb(0,0,0)" stroke="rgb(0,0,0)" stroke-width="1" opacity="0.807843137254902" d="M 82.5 312 L 83.5 314 L 82.5 312 Z " /><path fill="rgb(0,0,0)" stroke="rgb(0,0,0)" stroke-width="1" opacity="0.807843137254902" d="M 265.5 312 L 267.5 315 L 265.5 312 Z " /><path fill="rgb(0,0,0)" stroke="rgb(0,0,0)" stroke-width="1" opacity="0.807843137254902" d="M 116.5 314 L 118.5 317 L 116.5 314 Z " /><path fill="rgb(0,0,0)" stroke="rgb(0,0,0)" stroke-width="1" opacity="0.807843137254902" d="M 85.5 316 L 86.5 318 L 85.5 316 Z " /><path fill="rgb(0,0,0)" stroke="rgb(0,0,0)" stroke-width="1" opacity="0.807843137254902" d="M 270.5 316 L 271.5 318 L 270.5 316 Z " /><path fill="rgb(0,0,0)" stroke="rgb(0,0,0)" stroke-width="1" opacity="0.807843137254902" d="M 390.5 316 L 395 316.5 L 390.5 317 L 390.5 316 Z " /><path fill="rgb(0,0,0)" stroke="rgb(0,0,0)" stroke-width="1" opacity="0.807843137254902" d="M 120.5 319 L 122.5 322 L 120.5 319 Z " /><path fill="rgb(0,0,0)" stroke="rgb(0,0,0)" stroke-width="1" opacity="0.807843137254902" d="M 233.5 319 L 237.5 324 L 233.5 319 Z " /><path fill="rgb(0,0,0)" stroke="rgb(0,0,0)" stroke-width="1" opacity="0.807843137254902" d="M 274.5 319 L 275.5 321 L 274.5 319 Z " /><path fill="rgb(0,0,0)" stroke="rgb(0,0,0)" stroke-width="1" opacity="0.807843137254902" d="M 381.5 319 L 380.5 321 L 381.5 319 Z " /><path fill="rgb(0,0,0)" stroke="rgb(0,0,0)" stroke-width="1" opacity="0.807843137254902" d="M 88.5 320 L 89.5 322 L 88.5 320 Z " /><path fill="rgb(0,0,0)" stroke="rgb(0,0,0)" stroke-width="1" opacity="0.807843137254902" d="M 405.5 320 L 406.5 322 L 405.5 320 Z " /><path fill="rgb(0,0,0)" stroke="rgb(0,0,0)" stroke-width="1" opacity="0.807843137254902" d="M 277.5 321 L 279.5 324 L 277.5 321 Z " /><path fill="rgb(0,0,0)" stroke="rgb(0,0,0)" stroke-width="1" opacity="0.807843137254902" d="M 378.5 321 L 377.5 323 L 378.5 321 Z " /><path fill="rgb(0,0,0)" stroke="rgb(0,0,0)" stroke-width="1" opacity="0.807843137254902" d="M 91.5 324 L 94.5 328 L 91.5 324 Z " /><path fill="rgb(0,0,0)" stroke="rgb(0,0,0)" stroke-width="1" opacity="0.807843137254902" d="M 124.5 324 L 128.5 329 L 124.5 324 Z " /><path fill="rgb(0,0,0)" stroke="rgb(0,0,0)" stroke-width="1" opacity="0.807843137254902" d="M 281.5 324 L 282.5 326 L 281.5 324 Z " /><path fill="rgb(0,0,0)" stroke="rgb(0,0,0)" stroke-width="1" opacity="0.807843137254902" d="M 410.5 324 L 476.5 391 L 410.5 324 Z " /><path fill="rgb(0,0,0)" stroke="rgb(0,0,0)" stroke-width="1" opacity="0.807843137254902" d="M 373.5 325 L 330.5 369 L 373.5 325 Z " /><path fill="rgb(0,0,0)" stroke="rgb(0,0,0)" stroke-width="1" opacity="0.807843137254902" d="M 241.5 326 L 243.5 329 L 241.5 326 Z " /><path fill="rgb(0,0,0)" stroke="rgb(0,0,0)" stroke-width="1" opacity="0.807843137254902" d="M 284.5 326 L 285.5 328 L 284.5 326 Z " /><path fill="rgb(0,0,0)" stroke="rgb(0,0,0)" stroke-width="1" opacity="0.807843137254902" d="M 287.5 328 L 288.5 330 L 287.5 328 Z " /><path fill="rgb(0,0,0)" stroke="rgb(0,0,0)" stroke-width="1" opacity="0.807843137254902" d="M 96.5 330 L 98.5 333 L 96.5 330 Z " /><path fill="rgb(0,0,0)" stroke="rgb(0,0,0)" stroke-width="1" opacity="0.807843137254902" d="M 246.5 330 L 248.5 333 L 246.5 330 Z " /><path fill="rgb(0,0,0)" stroke="rgb(0,0,0)" stroke-width="1" opacity="0.807843137254902" d="M 290.5 330 L 291.5 332 L 290.5 330 Z " /><path fill="rgb(0,0,0)" stroke="rgb(0,0,0)" stroke-width="1" opacity="0.807843137254902" d="M 131.5 332 L 135.5 337 L 131.5 332 Z " /><path fill="rgb(0,0,0)" stroke="rgb(0,0,0)" stroke-width="1" opacity="0.807843137254902" d="M 293.5 332 L 294.5 334 L 293.5 332 Z " /><path fill="rgb(0,0,0)" stroke="rgb(0,0,0)" stroke-width="1" opacity="0.807843137254902" d="M 251.5 334 L 253.5 337 L 251.5 334 Z " /><path fill="rgb(0,0,0)" stroke="rgb(0,0,0)" stroke-width="1" opacity="0.807843137254902" d="M 100.5 335 L 102.5 338 L 100.5 335 Z " /><path fill="rgb(0,0,0)" stroke="rgb(0,0,0)" stroke-width="1" opacity="0.807843137254902" d="M 300.5 336 L 301.5 338 L 300.5 336 Z " /><path fill="rgb(0,0,0)" stroke="rgb(0,0,0)" stroke-width="1" opacity="0.807843137254902" d="M 256.5 338 L 257.5 340 L 256.5 338 Z " /><path fill="rgb(0,0,0)" stroke="rgb(0,0,0)" stroke-width="1" opacity="0.807843137254902" d="M 104.5 340 L 108.5 345 L 104.5 340 Z " /><path fill="rgb(0,0,0)" stroke="rgb(0,0,0)" stroke-width="1" opacity="0.807843137254902" d="M 138.5 340 L 145.5 348 L 138.5 340 Z " /><path fill="rgb(0,0,0)" stroke="rgb(0,0,0)" stroke-width="1" opacity="0.807843137254902" d="M 259.5 340 L 261.5 343 L 259.5 340 Z " /><path fill="rgb(0,0,0)" stroke="rgb(0,0,0)" stroke-width="1" opacity="0.807843137254902" d="M 263.5 343 L 264.5 345 L 263.5 343 Z " /><path fill="rgb(0,0,0)" stroke="rgb(0,0,0)" stroke-width="1" opacity="0.807843137254902" d="M 315.5 344 L 316.5 346 L 315.5 344 Z " /><path fill="rgb(0,0,0)" stroke="rgb(0,0,0)" stroke-width="1" opacity="0.807843137254902" d="M 267.5 346 L 268.5 348 L 267.5 346 Z " /><path fill="rgb(0,0,0)" stroke="rgb(0,0,0)" stroke-width="1" opacity="0.807843137254902" d="M 111.5 348 L 115.5 353 L 111.5 348 Z " /><path fill="rgb(0,0,0)" stroke="rgb(0,0,0)" stroke-width="1" opacity="0.807843137254902" d="M 270.5 348 L 271.5 350 L 270.5 348 Z " /><path fill="rgb(0,0,0)" stroke="rgb(0,0,0)" stroke-width="1" opacity="0.807843137254902" d="M 273.5 350 L 274.5 352 L 273.5 350 Z " /><path fill="rgb(0,0,0)" stroke="rgb(0,0,0)" stroke-width="1" opacity="0.807843137254902" d="M 276.5 352 L 277.5 354 L 276.5 352 Z " /><path fill="rgb(0,0,0)" stroke="rgb(0,0,0)" stroke-width="1" opacity="0.807843137254902" d="M 279.5 354 L 280.5 356 L 279.5 354 Z " /><path fill="rgb(0,0,0)" stroke="rgb(0,0,0)" stroke-width="1" opacity="0.807843137254902" d="M 118.5 356 L 123.5 362 L 118.5 356 Z " /><path fill="rgb(0,0,0)" stroke="rgb(0,0,0)" stroke-width="1" opacity="0.807843137254902" d="M 301.5 366 L 302.5 368 L 301.5 366 Z " /><path fill="rgb(0,0,0)" stroke="rgb(0,0,0)" stroke-width="1" opacity="0.807843137254902" d="M 167.5 369 L 174.5 377 L 167.5 369 Z " /><path fill="rgb(0,0,0)" stroke="rgb(0,0,0)" stroke-width="1" opacity="0.807843137254902" d="M 314.5 372 L 321 372.5 L 314.5 373 L 314.5 372 Z " /><path fill="rgb(0,0,0)" stroke="rgb(0,0,0)" stroke-width="1" opacity="0.807843137254902" d="M 495.5 373 L 498.5 377 L 495.5 373 Z " /><path fill="rgb(0,0,0)" stroke="rgb(0,0,0)" stroke-width="1" opacity="0.807843137254902" d="M 136.5 375 L 145.5 385 L 136.5 375 Z " /><path fill="rgb(0,0,0)" stroke="rgb(0,0,0)" stroke-width="1" opacity="0.807843137254902" d="M 500.5 379 L 501.5 381 L 500.5 379 Z " /><path fill="rgb(0,0,0)" stroke="rgb(0,0,0)" stroke-width="1" opacity="0.807843137254902" d="M 180.5 381 L 184.5 386 L 180.5 381 Z " /><path fill="rgb(0,0,0)" stroke="rgb(0,0,0)" stroke-width="1" opacity="0.807843137254902" d="M 502.5 382 L 503.5 384 L 502.5 382 Z " /><path fill="rgb(0,0,0)" stroke="rgb(0,0,0)" stroke-width="1" opacity="0.807843137254902" d="M 187.5 387 L 190.5 391 L 187.5 387 Z " /><path fill="rgb(0,0,0)" stroke="rgb(0,0,0)" stroke-width="1" opacity="0.807843137254902" d="M 151.5 389 L 158.5 397 L 151.5 389 Z " /><path fill="rgb(0,0,0)" stroke="rgb(0,0,0)" stroke-width="1" opacity="0.807843137254902" d="M 193.5 392 L 195.5 395 L 193.5 392 Z " /><path fill="rgb(0,0,0)" stroke="rgb(0,0,0)" stroke-width="1" opacity="0.807843137254902" d="M 479.5 394 L 480.5 396 L 479.5 394 Z " /><path fill="rgb(0,0,0)" stroke="rgb(0,0,0)" stroke-width="1" opacity="0.807843137254902" d="M 199.5 397 L 201.5 400 L 199.5 397 Z " /><path fill="rgb(0,0,0)" stroke="rgb(0,0,0)" stroke-width="1" opacity="0.807843137254902" d="M 163.5 400 L 167.5 405 L 163.5 400 Z " /><path fill="rgb(0,0,0)" stroke="rgb(0,0,0)" stroke-width="1" opacity="0.807843137254902" d="M 204.5 401 L 205.5 403 L 204.5 401 Z " /><path fill="rgb(0,0,0)" stroke="rgb(0,0,0)" stroke-width="1" opacity="0.807843137254902" d="M 510.5 402 L 511 406.5 L 510 406.5 L 510.5 402 Z " /><path fill="rgb(0,0,0)" stroke="rgb(0,0,0)" stroke-width="1" opacity="0.807843137254902" d="M 208.5 404 L 209.5 406 L 208.5 404 Z " /><path fill="rgb(0,0,0)" stroke="rgb(0,0,0)" stroke-width="1" opacity="0.807843137254902" d="M 170.5 406 L 173.5 410 L 170.5 406 Z " /><path fill="rgb(0,0,0)" stroke="rgb(0,0,0)" stroke-width="1" opacity="0.807843137254902" d="M 212.5 407 L 213.5 409 L 212.5 407 Z " /><path fill="rgb(0,0,0)" stroke="rgb(0,0,0)" stroke-width="1" opacity="0.807843137254902" d="M 216.5 410 L 217.5 412 L 216.5 410 Z " /><path fill="rgb(0,0,0)" stroke="rgb(0,0,0)" stroke-width="1" opacity="0.807843137254902" d="M 176.5 411 L 179.5 415 L 176.5 411 Z " /><path fill="rgb(0,0,0)" stroke="rgb(0,0,0)" stroke-width="1" opacity="0.807843137254902" d="M 510.5 412 L 511 415.5 L 510 415.5 L 510.5 412 Z " /><path fill="rgb(0,0,0)" stroke="rgb(0,0,0)" stroke-width="1" opacity="0.807843137254902" d="M 220.5 413 L 221.5 415 L 220.5 413 Z " /><path fill="rgb(0,0,0)" stroke="rgb(0,0,0)" stroke-width="1" opacity="0.807843137254902" d="M 182.5 416 L 184.5 419 L 182.5 416 Z " /><path fill="rgb(0,0,0)" stroke="rgb(0,0,0)" stroke-width="1" opacity="0.807843137254902" d="M 224.5 416 L 225.5 418 L 224.5 416 Z " /><path fill="rgb(0,0,0)" stroke="rgb(0,0,0)" stroke-width="1" opacity="0.807843137254902" d="M 227.5 418 L 228.5 420 L 227.5 418 Z " /><path fill="rgb(0,0,0)" stroke="rgb(0,0,0)" stroke-width="1" opacity="0.807843137254902" d="M 230.5 420 L 231.5 422 L 230.5 420 Z " /><path fill="rgb(0,0,0)" stroke="rgb(0,0,0)" stroke-width="1" opacity="0.807843137254902" d="M 482.5 420 L 481.5 422 L 482.5 420 Z " /><path fill="rgb(0,0,0)" stroke="rgb(0,0,0)" stroke-width="1" opacity="0.807843137254902" d="M 188.5 421 L 189.5 423 L 188.5 421 Z " /><path fill="rgb(0,0,0)" stroke="rgb(0,0,0)" stroke-width="1" opacity="0.807843137254902" d="M 233.5 422 L 234.5 424 L 233.5 422 Z " /><path fill="rgb(0,0,0)" stroke="rgb(0,0,0)" stroke-width="1" opacity="0.807843137254902" d="M 192.5 424 L 193.5 426 L 192.5 424 Z " /><path fill="rgb(0,0,0)" stroke="rgb(0,0,0)" stroke-width="1" opacity="0.807843137254902" d="M 236.5 424 L 237.5 426 L 236.5 424 Z " /><path fill="rgb(0,0,0)" stroke="rgb(0,0,0)" stroke-width="1" opacity="0.807843137254902" d="M 195.5 426 L 197.5 429 L 195.5 426 Z " /><path fill="rgb(0,0,0)" stroke="rgb(0,0,0)" stroke-width="1" opacity="0.807843137254902" d="M 478.5 426 L 473.5 432 L 478.5 426 Z " /><path fill="rgb(0,0,0)" stroke="rgb(0,0,0)" stroke-width="1" opacity="0.807843137254902" d="M 199.5 429 L 201.5 432 L 199.5 429 Z " /><path fill="rgb(0,0,0)" stroke="rgb(0,0,0)" stroke-width="1" opacity="0.807843137254902" d="M 203.5 432 L 204.5 434 L 203.5 432 Z " /><path fill="rgb(0,0,0)" stroke="rgb(0,0,0)" stroke-width="1" opacity="0.807843137254902" d="M 250.5 433 L 251.5 435 L 250.5 433 Z " /><path fill="rgb(0,0,0)" stroke="rgb(0,0,0)" stroke-width="1" opacity="0.807843137254902" d="M 504.5 433 L 503.5 435 L 504.5 433 Z " /><path fill="rgb(0,0,0)" stroke="rgb(0,0,0)" stroke-width="1" opacity="0.807843137254902" d="M 207.5 435 L 208.5 437 L 207.5 435 Z " /><path fill="rgb(0,0,0)" stroke="rgb(0,0,0)" stroke-width="1" opacity="0.807843137254902" d="M 257.5 437 L 258.5 439 L 257.5 437 Z " /><path fill="rgb(0,0,0)" stroke="rgb(0,0,0)" stroke-width="1" opacity="0.807843137254902" d="M 211.5 438 L 212.5 440 L 211.5 438 Z " /><path fill="rgb(0,0,0)" stroke="rgb(0,0,0)" stroke-width="1" opacity="0.807843137254902" d="M 501.5 438 L 499.5 441 L 501.5 438 Z " /><path fill="rgb(0,0,0)" stroke="rgb(0,0,0)" stroke-width="1" opacity="0.807843137254902" d="M 214.5 440 L 215.5 442 L 214.5 440 Z " /><path fill="rgb(0,0,0)" stroke="rgb(0,0,0)" stroke-width="1" opacity="0.807843137254902" d="M 262.5 440 L 263.5 442 L 262.5 440 Z " /><path fill="rgb(0,0,0)" stroke="rgb(0,0,0)" stroke-width="1" opacity="0.807843137254902" d="M 217.5 442 L 218.5 444 L 217.5 442 Z " /><path fill="rgb(0,0,0)" stroke="rgb(0,0,0)" stroke-width="1" opacity="0.807843137254902" d="M 267.5 443 L 268.5 445 L 267.5 443 Z " /><path fill="rgb(0,0,0)" stroke="rgb(0,0,0)" stroke-width="1" opacity="0.807843137254902" d="M 496.5 444 L 494.5 447 L 496.5 444 Z " /><path fill="rgb(0,0,0)" stroke="rgb(0,0,0)" stroke-width="1" opacity="0.807843137254902" d="M 458.5 446 L 448.5 457 L 458.5 446 Z " /><path fill="rgb(0,0,0)" stroke="rgb(0,0,0)" stroke-width="1" opacity="0.807843137254902" d="M 284.5 452 L 285.5 454 L 284.5 452 Z " /><path fill="rgb(0,0,0)" stroke="rgb(0,0,0)" stroke-width="1" opacity="0.807843137254902" d="M 485.5 455 L 466.5 475 L 485.5 455 Z " /><path fill="rgb(0,0,0)" stroke="rgb(0,0,0)" stroke-width="1" opacity="0.807843137254902" d="M 239.5 456 L 240.5 458 L 239.5 456 Z " /><path fill="rgb(0,0,0)" stroke="rgb(0,0,0)" stroke-width="1" opacity="0.807843137254902" d="M 244.5 459 L 245.5 461 L 244.5 459 Z " /><path fill="rgb(0,0,0)" stroke="rgb(0,0,0)" stroke-width="1" opacity="0.807843137254902" d="M 444.5 461 L 432.5 474 L 444.5 461 Z " /><path fill="rgb(0,0,0)" stroke="rgb(0,0,0)" stroke-width="1" opacity="0.807843137254902" d="M 256.5 466 L 257.5 468 L 256.5 466 Z " /><path fill="rgb(0,0,0)" stroke="rgb(0,0,0)" stroke-width="1" opacity="0.807843137254902" d="M 273.5 475 L 274.5 477 L 273.5 475 Z " /><path fill="rgb(0,0,0)" stroke="rgb(0,0,0)" stroke-width="1" opacity="0.807843137254902" d="M 429.5 475 L 428.5 477 L 429.5 475 Z " /><path fill="rgb(0,0,0)" stroke="rgb(0,0,0)" stroke-width="1" opacity="0.807843137254902" d="M 461.5 480 L 450.5 492 L 461.5 480 Z " /><path fill="rgb(0,0,0)" stroke="rgb(0,0,0)" stroke-width="1" opacity="0.807843137254902" d="M 371.5 484 L 374 484.5 L 371.5 485 L 371.5 484 Z " /><path fill="rgb(0,0,0)" stroke="rgb(0,0,0)" stroke-width="1" opacity="0.807843137254902" d="M 378.5 485 L 383 485.5 L 378.5 486 L 378.5 485 Z " /><path fill="rgb(0,0,0)" stroke="rgb(0,0,0)" stroke-width="1" opacity="0.807843137254902" d="M 404.5 485 L 407 485.5 L 404.5 486 L 404.5 485 Z " /><path fill="rgb(0,0,0)" stroke="rgb(0,0,0)" stroke-width="1" opacity="0.807843137254902" d="M 388.5 486 L 399 486.5 L 388.5 487 L 388.5 486 Z " /><path fill="rgb(0,0,0)" stroke="rgb(0,0,0)" stroke-width="1" opacity="0.807843137254902" d="M 447.5 493 L 445.5 496 L 447.5 493 Z " /><path fill="rgb(0,0,0)" stroke="rgb(0,0,0)" stroke-width="1" opacity="0.807843137254902" d="M 437.5 500 L 436.5 502 L 437.5 500 Z " /><path fill="rgb(0,0,0)" stroke="rgb(0,0,0)" stroke-width="1" opacity="0.807843137254902" d="M 361.5 508 L 364 508.5 L 361.5 509 L 361.5 508 Z " /><path fill="rgb(0,0,0)" stroke="rgb(0,0,0)" stroke-width="1" opacity="0.807843137254902" d="M 373.5 510 L 378 510.5 L 373.5 511 L 373.5 510 Z " /><path fill="rgb(0,0,0)" stroke="rgb(0,0,0)" stroke-width="1" opacity="0.807843137254902" d="M 408.5 510 L 411 510.5 L 408.5 511 L 408.5 510 Z " /><path fill="rgb(0,0,0)" stroke="rgb(0,0,0)" stroke-width="1" opacity="0.807843137254902" d="M 382.5 511 L 390 511.5 L 382.5 512 L 382.5 511 Z " /><path fill="rgb(0,0,0)" stroke="rgb(0,0,0)" stroke-width="1" opacity="0.807843137254902" d="M 395.5 511 L 404 511.5 L 395.5 512 L 395.5 511 Z " /><path fill="rgb(0,0,0)" stroke="rgb(0,0,0)" stroke-width="1" opacity="0.996078431372549" d="M 101.5 0 L 116.5 2 L 131.5 9 L 208 84.5 L 218 99.5 L 221 108.5 L 222 121.5 L 218 137.5 L 212 147.5 L 166 194.5 Q 178.1 221.9 196 243.5 Q 215.6 268.4 238.5 290 Q 272.1 323.4 316.5 346 L 355.5 307 L 368.5 297 L 384.5 291 L 400.5 291 Q 418 295 428.5 306 L 495 372.5 L 507 390.5 L 510 399.5 L 511 411.5 L 509 422.5 L 505 432.5 Q 497.4 445.4 486.5 455 L 466 474.5 L 448.5 493 Q 436 504 417.5 509 L 407.5 511 L 390.5 512 L 389.5 511 L 369.5 510 L 335.5 502 L 305.5 491 L 258.5 468 Q 181.5 425 124 362.5 Q 69.6 304.9 32 230.5 L 17 195.5 L 9 171.5 L 3 144.5 L 1 115.5 L 2 114.5 L 2 103.5 L 4 93.5 L 13 72.5 L 20 62.5 L 68.5 14 L 86.5 3 L 101.5 0 Z M 98 26 L 88 31 L 39 80 L 31 93 L 27 108 L 27 136 L 33 164 L 47 203 L 65 240 Q 84 274 108 305 L 138 341 L 161 364 L 161 365 L 163 365 L 191 391 L 226 418 L 269 445 L 300 461 L 328 473 L 353 481 L 379 486 L 388 486 L 389 487 L 399 487 L 415 484 L 433 474 L 479 427 L 485 415 Q 486 397 477 391 L 411 324 L 400 317 L 395 316 Q 384 316 379 321 L 330 369 L 324 372 Q 315 373 310 371 L 282 356 Q 249 335 222 309 Q 192 281 168 249 L 148 217 L 140 198 Q 138 186 143 182 L 160 166 L 186 140 Q 193 133 196 124 L 196 114 L 190 103 L 119 31 Q 112 24 98 26 Z " /></svg>